<svg width="144" height="34" viewBox="0 0 144 34" fill="none" xmlns="http://www.w3.org/2000/svg">
<rect width="144" height="34" rx="12" fill="url(#paint0_linear_163_232)"/>
<g clip-path="url(#clip0_163_232)">
<path fill-rule="evenodd" clip-rule="evenodd" d="M29.3051 18.7601C29.0838 18.6385 27.9943 18.0574 27.7901 17.9764C27.5858 17.8953 27.436 17.8514 27.2794 18.0709C27.1228 18.2872 26.6699 18.777 26.5338 18.9223C26.3976 19.0676 26.2648 19.0811 26.0435 18.9595C25.8222 18.8378 25.1038 18.5743 24.2731 17.7804C23.6263 17.1622 23.2007 16.4122 23.0781 16.1824C22.9556 15.9527 23.0781 15.8378 23.1939 15.7297C23.2994 15.6318 23.4288 15.4764 23.5479 15.3514C23.6637 15.2264 23.7046 15.1318 23.7863 14.9865C23.868 14.8412 23.8339 14.7095 23.7829 14.5946C23.7318 14.4797 23.3198 13.3615 23.1496 12.9088C22.9794 12.4527 22.7887 12.5203 22.6559 12.5169C22.5232 12.5135 22.3734 12.4865 22.2236 12.4831C22.0738 12.4764 21.8252 12.5236 21.6107 12.7399C21.3963 12.9561 20.7902 13.4764 20.7494 14.5777C20.7085 15.6791 21.4746 16.7736 21.5835 16.9257C21.689 17.0811 23.0509 19.4662 25.3081 20.4493C27.5688 21.4324 27.579 21.1318 27.9943 21.1115C28.4097 21.0912 29.3493 20.6182 29.557 20.1047C29.7647 19.5878 29.7817 19.1419 29.7273 19.0473C29.6728 18.9527 29.5264 18.8885 29.3051 18.7703V18.7601ZM25.1617 24.0676C23.6671 24.0676 22.278 23.6216 21.1137 22.8615L18.2879 23.7601L19.2071 21.0507C18.3253 19.848 17.8078 18.3682 17.8078 16.7703C17.8078 12.7432 21.1069 9.46959 25.1617 9.46959C29.2166 9.46959 32.519 12.7432 32.519 16.7703C32.519 20.7973 29.22 24.0709 25.1617 24.0709V24.0676ZM25.1617 8C20.283 8 16.3268 11.9257 16.3268 16.7669C16.3268 18.4223 16.7899 19.973 17.5967 21.2939L16 26L20.8924 24.4459C22.1589 25.1419 23.6126 25.5372 25.1617 25.5372C30.0439 25.5372 34 21.6115 34 16.7669C34 11.9223 30.0439 8 25.1617 8Z" fill="white"/>
</g>
<path d="M51.5753 15.1293H50.0241C49.9645 14.7978 49.8535 14.5062 49.6911 14.2543C49.5286 14.0024 49.3298 13.7886 49.0945 13.6129C48.8591 13.4373 48.5956 13.3047 48.304 13.2152C48.0156 13.1257 47.709 13.081 47.3842 13.081C46.7976 13.081 46.2723 13.2285 45.8082 13.5234C45.3475 13.8184 44.983 14.2509 44.7145 14.821C44.4493 15.3911 44.3168 16.0871 44.3168 16.9091C44.3168 17.7377 44.4493 18.437 44.7145 19.0071C44.983 19.5772 45.3492 20.008 45.8132 20.2997C46.2772 20.5914 46.7992 20.7372 47.3793 20.7372C47.7008 20.7372 48.0057 20.6941 48.294 20.608C48.5857 20.5185 48.8492 20.3875 49.0845 20.2152C49.3198 20.0429 49.5187 19.8324 49.6811 19.5838C49.8468 19.3319 49.9612 19.0436 50.0241 18.7188L51.5753 18.7237C51.4924 19.2242 51.3317 19.6849 51.093 20.1058C50.8577 20.5234 50.5545 20.8847 50.1832 21.1896C49.8153 21.4912 49.3944 21.7249 48.9205 21.8906C48.4465 22.0563 47.9295 22.1392 47.3693 22.1392C46.4877 22.1392 45.7022 21.9304 45.0128 21.5128C44.3234 21.0919 43.7798 20.4903 43.3821 19.7081C42.9877 18.9259 42.7905 17.9929 42.7905 16.9091C42.7905 15.822 42.9893 14.889 43.3871 14.1101C43.7848 13.3279 44.3284 12.728 45.0178 12.3104C45.7071 11.8894 46.491 11.679 47.3693 11.679C47.9096 11.679 48.4134 11.7569 48.8807 11.9126C49.3513 12.0651 49.7739 12.2905 50.1484 12.5888C50.523 12.8838 50.8329 13.245 51.0781 13.6726C51.3234 14.0968 51.4891 14.5824 51.5753 15.1293ZM56.5108 22.1541C55.7949 22.1541 55.1702 21.9901 54.6365 21.6619C54.1029 21.3338 53.6886 20.8748 53.3936 20.2848C53.0987 19.6948 52.9512 19.0054 52.9512 18.2166C52.9512 17.4245 53.0987 16.7318 53.3936 16.1385C53.6886 15.5452 54.1029 15.0845 54.6365 14.7564C55.1702 14.4283 55.7949 14.2642 56.5108 14.2642C57.2267 14.2642 57.8515 14.4283 58.3851 14.7564C58.9187 15.0845 59.333 15.5452 59.628 16.1385C59.923 16.7318 60.0705 17.4245 60.0705 18.2166C60.0705 19.0054 59.923 19.6948 59.628 20.2848C59.333 20.8748 58.9187 21.3338 58.3851 21.6619C57.8515 21.9901 57.2267 22.1541 56.5108 22.1541ZM56.5158 20.9062C56.9798 20.9062 57.3643 20.7836 57.6692 20.5384C57.9741 20.2931 58.1995 19.9666 58.3453 19.5589C58.4945 19.1513 58.5691 18.7022 58.5691 18.2116C58.5691 17.7244 58.4945 17.277 58.3453 16.8693C58.1995 16.4583 57.9741 16.1286 57.6692 15.88C57.3643 15.6314 56.9798 15.5071 56.5158 15.5071C56.0485 15.5071 55.6607 15.6314 55.3525 15.88C55.0475 16.1286 54.8205 16.4583 54.6713 16.8693C54.5255 17.277 54.4526 17.7244 54.4526 18.2116C54.4526 18.7022 54.5255 19.1513 54.6713 19.5589C54.8205 19.9666 55.0475 20.2931 55.3525 20.5384C55.6607 20.7836 56.0485 20.9062 56.5158 20.9062ZM63.2163 17.4659V22H61.7298V14.3636H63.1566V15.6065H63.2511C63.4267 15.2022 63.7018 14.8774 64.0763 14.6321C64.4542 14.3868 64.9298 14.2642 65.5032 14.2642C66.0236 14.2642 66.4793 14.3736 66.8704 14.5923C67.2615 14.8078 67.5647 15.1293 67.7802 15.5568C67.9956 15.9844 68.1033 16.513 68.1033 17.1428V22H66.6168V17.3217C66.6168 16.7682 66.4727 16.3357 66.1843 16.0241C65.896 15.7093 65.4999 15.5518 64.9961 15.5518C64.6514 15.5518 64.3448 15.6264 64.0763 15.7756C63.8112 15.9247 63.6007 16.1435 63.445 16.4318C63.2925 16.7169 63.2163 17.0616 63.2163 17.4659ZM73.6616 14.3636V15.5568H69.4904V14.3636H73.6616ZM70.609 12.5341H72.0955V19.7578C72.0955 20.0462 72.1386 20.2633 72.2248 20.4091C72.311 20.5516 72.422 20.6494 72.5579 20.7024C72.6971 20.7521 72.8479 20.777 73.0103 20.777C73.1296 20.777 73.234 20.7687 73.3235 20.7521C73.413 20.7356 73.4826 20.7223 73.5323 20.7124L73.8008 21.9403C73.7146 21.9735 73.592 22.0066 73.4329 22.0398C73.2738 22.0762 73.0749 22.0961 72.8363 22.0994C72.4452 22.1061 72.0806 22.0365 71.7425 21.8906C71.4045 21.7448 71.131 21.5194 70.9222 21.2145C70.7134 20.9096 70.609 20.5268 70.609 20.0661V12.5341ZM77.5282 22.169C77.0443 22.169 76.6068 22.0795 76.2157 21.9006C75.8246 21.7183 75.5147 21.4548 75.286 21.1101C75.0607 20.7654 74.948 20.3428 74.948 19.8423C74.948 19.4115 75.0308 19.0568 75.1966 18.7784C75.3623 18.5 75.586 18.2796 75.8677 18.1172C76.1494 17.9548 76.4643 17.8321 76.8123 17.7493C77.1603 17.6664 77.515 17.6035 77.8762 17.5604C78.3336 17.5073 78.7048 17.4643 78.9899 17.4311C79.2749 17.3946 79.4821 17.3366 79.6113 17.2571C79.7406 17.1776 79.8052 17.0483 79.8052 16.8693V16.8345C79.8052 16.4003 79.6826 16.0639 79.4373 15.8253C79.1954 15.5866 78.8341 15.4673 78.3535 15.4673C77.853 15.4673 77.4586 15.5784 77.1703 15.8004C76.8852 16.0192 76.688 16.2628 76.5787 16.5312L75.1816 16.2131C75.3474 15.7491 75.5893 15.3745 75.9075 15.0895C76.229 14.8011 76.5985 14.5923 77.0162 14.4631C77.4338 14.3305 77.8729 14.2642 78.3336 14.2642C78.6386 14.2642 78.9617 14.3007 79.3031 14.3736C79.6478 14.4432 79.9693 14.5724 80.2676 14.7614C80.5692 14.9503 80.8161 15.2204 81.0083 15.5717C81.2006 15.9197 81.2967 16.3722 81.2967 16.929V22H79.845V20.956H79.7853C79.6892 21.1482 79.545 21.3371 79.3528 21.5227C79.1606 21.7083 78.9136 21.8625 78.612 21.9851C78.3104 22.1077 77.9492 22.169 77.5282 22.169ZM77.8514 20.9759C78.2624 20.9759 78.6137 20.8946 78.9054 20.7322C79.2003 20.5698 79.4241 20.3577 79.5765 20.0959C79.7323 19.8307 79.8102 19.5473 79.8102 19.2457V18.2614C79.7572 18.3144 79.6544 18.3641 79.502 18.4105C79.3528 18.4536 79.1821 18.4917 78.9899 18.5249C78.7976 18.5547 78.6104 18.5829 78.4281 18.6094C78.2458 18.6326 78.0933 18.6525 77.9707 18.669C77.6824 18.7055 77.4189 18.7668 77.1802 18.853C76.9449 18.9392 76.756 19.0634 76.6135 19.2259C76.4743 19.3849 76.4047 19.5971 76.4047 19.8622C76.4047 20.2301 76.5405 20.5085 76.8123 20.6974C77.0841 20.883 77.4305 20.9759 77.8514 20.9759ZM86.4933 22.1541C85.7541 22.1541 85.1178 21.9867 84.5842 21.652C84.0539 21.3139 83.6462 20.8482 83.3612 20.255C83.0761 19.6617 82.9336 18.9822 82.9336 18.2166C82.9336 17.4411 83.0794 16.7566 83.3711 16.1634C83.6628 15.5668 84.0737 15.1011 84.604 14.7663C85.1344 14.4316 85.7591 14.2642 86.4783 14.2642C87.0584 14.2642 87.5754 14.3719 88.0295 14.5874C88.4835 14.7995 88.8498 15.0978 89.1282 15.4822C89.4099 15.8667 89.5773 16.3158 89.6303 16.8295H88.1836C88.104 16.4716 87.9218 16.1634 87.6367 15.9048C87.355 15.6463 86.9772 15.517 86.5032 15.517C86.0889 15.517 85.726 15.6264 85.4144 15.8452C85.1062 16.0606 84.8659 16.3688 84.6935 16.7699C84.5212 17.1676 84.435 17.6383 84.435 18.1818C84.435 18.7386 84.5195 19.2192 84.6886 19.6236C84.8576 20.0279 85.0962 20.3411 85.4045 20.5632C85.716 20.7853 86.0823 20.8963 86.5032 20.8963C86.7849 20.8963 87.0401 20.8449 87.2688 20.7422C87.5008 20.6361 87.6947 20.4853 87.8505 20.2898C88.0096 20.0942 88.1206 19.8589 88.1836 19.5838H89.6303C89.5773 20.0777 89.4165 20.5185 89.1481 20.9062C88.8796 21.294 88.52 21.599 88.0692 21.821C87.6218 22.0431 87.0965 22.1541 86.4933 22.1541ZM94.7846 14.3636V15.5568H90.6135V14.3636H94.7846ZM91.7321 12.5341H93.2186V19.7578C93.2186 20.0462 93.2617 20.2633 93.3478 20.4091C93.434 20.5516 93.545 20.6494 93.6809 20.7024C93.8201 20.7521 93.9709 20.777 94.1333 20.777C94.2527 20.777 94.3571 20.7687 94.4466 20.7521C94.536 20.7356 94.6056 20.7223 94.6554 20.7124L94.9238 21.9403C94.8377 21.9735 94.715 22.0066 94.5559 22.0398C94.3968 22.0762 94.198 22.0961 93.9593 22.0994C93.5682 22.1061 93.2037 22.0365 92.8656 21.8906C92.5275 21.7448 92.2541 21.5194 92.0453 21.2145C91.8365 20.9096 91.7321 20.5268 91.7321 20.0661V12.5341ZM98.6513 22.169C98.1674 22.169 97.7299 22.0795 97.3388 21.9006C96.9477 21.7183 96.6378 21.4548 96.4091 21.1101C96.1837 20.7654 96.071 20.3428 96.071 19.8423C96.071 19.4115 96.1539 19.0568 96.3196 18.7784C96.4853 18.5 96.709 18.2796 96.9908 18.1172C97.2725 17.9548 97.5874 17.8321 97.9354 17.7493C98.2834 17.6664 98.638 17.6035 98.9993 17.5604C99.4567 17.5073 99.8279 17.4643 100.113 17.4311C100.398 17.3946 100.605 17.3366 100.734 17.2571C100.864 17.1776 100.928 17.0483 100.928 16.8693V16.8345C100.928 16.4003 100.806 16.0639 100.56 15.8253C100.318 15.5866 99.9571 15.4673 99.4766 15.4673C98.9761 15.4673 98.5817 15.5784 98.2933 15.8004C98.0083 16.0192 97.8111 16.2628 97.7017 16.5312L96.3047 16.2131C96.4704 15.7491 96.7124 15.3745 97.0305 15.0895C97.352 14.8011 97.7216 14.5923 98.1392 14.4631C98.5568 14.3305 98.996 14.2642 99.4567 14.2642C99.7616 14.2642 100.085 14.3007 100.426 14.3736C100.771 14.4432 101.092 14.5724 101.391 14.7614C101.692 14.9503 101.939 15.2204 102.131 15.5717C102.324 15.9197 102.42 16.3722 102.42 16.929V22H100.968V20.956H100.908C100.812 21.1482 100.668 21.3371 100.476 21.5227C100.284 21.7083 100.037 21.8625 99.7351 21.9851C99.4335 22.1077 99.0722 22.169 98.6513 22.169ZM98.9744 20.9759C99.3854 20.9759 99.7367 20.8946 100.028 20.7322C100.323 20.5698 100.547 20.3577 100.7 20.0959C100.855 19.8307 100.933 19.5473 100.933 19.2457V18.2614C100.88 18.3144 100.777 18.3641 100.625 18.4105C100.476 18.4536 100.305 18.4917 100.113 18.5249C99.9207 18.5547 99.7334 18.5829 99.5511 18.6094C99.3688 18.6326 99.2164 18.6525 99.0938 18.669C98.8054 18.7055 98.5419 18.7668 98.3033 18.853C98.0679 18.9392 97.879 19.0634 97.7365 19.2259C97.5973 19.3849 97.5277 19.5971 97.5277 19.8622C97.5277 20.2301 97.6636 20.5085 97.9354 20.6974C98.2071 20.883 98.5535 20.9759 98.9744 20.9759ZM105.886 17.4659V22H104.4V14.3636H105.827V15.6065H105.921C106.097 15.2022 106.372 14.8774 106.746 14.6321C107.124 14.3868 107.6 14.2642 108.173 14.2642C108.693 14.2642 109.149 14.3736 109.54 14.5923C109.931 14.8078 110.235 15.1293 110.45 15.5568C110.666 15.9844 110.773 16.513 110.773 17.1428V22H109.287V17.3217C109.287 16.7682 109.143 16.3357 108.854 16.0241C108.566 15.7093 108.17 15.5518 107.666 15.5518C107.321 15.5518 107.015 15.6264 106.746 15.7756C106.481 15.9247 106.271 16.1435 106.115 16.4318C105.962 16.7169 105.886 17.0616 105.886 17.4659ZM115.983 22.1541C115.268 22.1541 114.643 21.9901 114.109 21.6619C113.576 21.3338 113.161 20.8748 112.866 20.2848C112.571 19.6948 112.424 19.0054 112.424 18.2166C112.424 17.4245 112.571 16.7318 112.866 16.1385C113.161 15.5452 113.576 15.0845 114.109 14.7564C114.643 14.4283 115.268 14.2642 115.983 14.2642C116.699 14.2642 117.324 14.4283 117.858 14.7564C118.391 15.0845 118.806 15.5452 119.101 16.1385C119.396 16.7318 119.543 17.4245 119.543 18.2166C119.543 19.0054 119.396 19.6948 119.101 20.2848C118.806 20.8748 118.391 21.3338 117.858 21.6619C117.324 21.9901 116.699 22.1541 115.983 22.1541ZM115.988 20.9062C116.452 20.9062 116.837 20.7836 117.142 20.5384C117.447 20.2931 117.672 19.9666 117.818 19.5589C117.967 19.1513 118.042 18.7022 118.042 18.2116C118.042 17.7244 117.967 17.277 117.818 16.8693C117.672 16.4583 117.447 16.1286 117.142 15.88C116.837 15.6314 116.452 15.5071 115.988 15.5071C115.521 15.5071 115.133 15.6314 114.825 15.88C114.52 16.1286 114.293 16.4583 114.144 16.8693C113.998 17.277 113.925 17.7244 113.925 18.2116C113.925 18.7022 113.998 19.1513 114.144 19.5589C114.293 19.9666 114.52 20.2931 114.825 20.5384C115.133 20.7836 115.521 20.9062 115.988 20.9062ZM126.925 16.228L125.577 16.4666C125.521 16.2943 125.432 16.1302 125.309 15.9744C125.19 15.8187 125.027 15.6911 124.822 15.5916C124.616 15.4922 124.359 15.4425 124.051 15.4425C123.63 15.4425 123.279 15.5369 122.997 15.7259C122.715 15.9115 122.575 16.1518 122.575 16.4467C122.575 16.7019 122.669 16.9074 122.858 17.0632C123.047 17.219 123.352 17.3466 123.773 17.446L124.986 17.7244C125.688 17.8868 126.212 18.1371 126.557 18.4751C126.902 18.8132 127.074 19.2524 127.074 19.7926C127.074 20.25 126.941 20.6577 126.676 21.0156C126.414 21.3703 126.048 21.6487 125.577 21.8509C125.11 22.053 124.568 22.1541 123.952 22.1541C123.097 22.1541 122.399 21.9718 121.859 21.6072C121.318 21.2393 120.987 20.7173 120.864 20.0412L122.301 19.8224C122.391 20.197 122.575 20.4804 122.853 20.6726C123.131 20.8615 123.494 20.956 123.942 20.956C124.429 20.956 124.818 20.8549 125.11 20.6527C125.402 20.4472 125.548 20.197 125.548 19.902C125.548 19.6634 125.458 19.4628 125.279 19.3004C125.103 19.138 124.833 19.0154 124.469 18.9325L123.176 18.6491C122.464 18.4867 121.937 18.2282 121.595 17.8736C121.257 17.5189 121.088 17.0698 121.088 16.5263C121.088 16.0755 121.214 15.6811 121.466 15.343C121.718 15.005 122.066 14.7415 122.51 14.5526C122.954 14.3603 123.463 14.2642 124.036 14.2642C124.862 14.2642 125.511 14.4432 125.985 14.8011C126.459 15.1558 126.772 15.6314 126.925 16.228Z" fill="white"/>
<defs>
<linearGradient id="paint0_linear_163_232" x1="0" y1="17" x2="144" y2="17" gradientUnits="userSpaceOnUse">
<stop stop-color="#FF7101"/>
<stop offset="0.5" stop-color="#FF7D18"/>
<stop offset="1" stop-color="#FF9B34"/>
</linearGradient>
<clipPath id="clip0_163_232">
<rect width="18" height="18" fill="white" transform="translate(16 8)"/>
</clipPath>
</defs>
</svg>
