<svg width="19" height="20" viewBox="0 0 19 20" fill="none" xmlns="http://www.w3.org/2000/svg">
<path d="M15.7344 3.29248H3.26562C2.71465 3.29307 2.18642 3.5122 1.79682 3.9018C1.40722 4.2914 1.18809 4.81963 1.1875 5.37061V14.2769C1.18809 14.8278 1.40722 15.3561 1.79682 15.7457C2.18642 16.1353 2.71465 16.3544 3.26562 16.355H15.7344C16.2853 16.3544 16.8136 16.1353 17.2032 15.7457C17.5928 15.3561 17.8119 14.8278 17.8125 14.2769V5.37061C17.8119 4.81963 17.5928 4.2914 17.2032 3.9018C16.8136 3.5122 16.2853 3.29307 15.7344 3.29248ZM15.2082 6.72992L9.86441 10.8862C9.76021 10.9672 9.63199 11.0112 9.5 11.0112C9.36801 11.0112 9.23979 10.9672 9.13559 10.8862L3.79184 6.72992C3.72905 6.68251 3.67632 6.62309 3.63669 6.55512C3.59707 6.48715 3.57135 6.41198 3.56103 6.33399C3.55071 6.25599 3.556 6.17672 3.57658 6.10079C3.59716 6.02485 3.63262 5.95376 3.68092 5.89165C3.72921 5.82954 3.78936 5.77765 3.85788 5.73899C3.9264 5.70032 4.00193 5.67567 4.08006 5.66644C4.15819 5.65722 4.23738 5.66362 4.31302 5.68527C4.38866 5.70691 4.45924 5.74338 4.52066 5.79254L9.5 9.66527L14.4793 5.79254C14.6038 5.69851 14.7604 5.65727 14.915 5.67774C15.0697 5.69821 15.2101 5.77873 15.3059 5.90191C15.4017 6.02508 15.4451 6.181 15.4268 6.33595C15.4085 6.4909 15.33 6.63243 15.2082 6.72992Z" fill="white"/>
</svg>
