<svg width="13" height="22" viewBox="0 0 13 22" fill="none" xmlns="http://www.w3.org/2000/svg">
<path fill-rule="evenodd" clip-rule="evenodd" d="M4.6841 1.68413C5.7625 0.6058 7.225 0 8.75 0H11.75C12.1642 0 12.5 0.33578 12.5 0.75V4.75C12.5 5.16421 12.1642 5.5 11.75 5.5H8.75C8.6837 5.5 8.6201 5.52633 8.5732 5.57322C8.5263 5.6201 8.5 5.68369 8.5 5.75V8H11.75C11.981 8 12.199 8.1064 12.3412 8.28844C12.4833 8.47047 12.5336 8.70784 12.4776 8.93188L11.4776 12.9319C11.3941 13.2658 11.0942 13.5 10.75 13.5H8.5V20.75C8.5 21.1642 8.1642 21.5 7.75 21.5H3.75C3.33579 21.5 3 21.1642 3 20.75V13.5H0.75C0.33579 13.5 0 13.1642 0 12.75V8.74998C0 8.33578 0.33579 8 0.75 8H3V5.75C3 4.225 3.6058 2.76247 4.6841 1.68413ZM8.75 1.5C7.6228 1.5 6.5418 1.94776 5.7448 2.74479C4.9478 3.54182 4.5 4.62283 4.5 5.75V8.74998C4.5 9.16418 4.1642 9.49998 3.75 9.49998H1.5V12H3.75C4.1642 12 4.5 12.3358 4.5 12.75V20H7V12.75C7 12.3358 7.3358 12 7.75 12H10.1644L10.7894 9.49998H7.75C7.3358 9.49998 7 9.16418 7 8.74998V5.75C7 5.28587 7.1844 4.84075 7.5126 4.51256C7.8408 4.18437 8.2859 4 8.75 4H11V1.5H8.75Z" fill="white"/>
</svg>
