<svg width="38" height="50" viewBox="0 0 38 50" fill="none" xmlns="http://www.w3.org/2000/svg">
<path d="M14.7061 48.8448H23.6103L19.1582 2.14185L14.7061 48.8448Z" fill="white" stroke="#003789" stroke-width="2.47525" stroke-linecap="round" stroke-linejoin="round"/>
<path d="M19.1585 35.4653C28.5875 35.4653 36.2312 27.8216 36.2312 18.3927C36.2312 8.96373 28.5875 1.32007 19.1585 1.32007C9.7296 1.32007 2.08594 8.96373 2.08594 18.3927C2.08594 27.8216 9.7296 35.4653 19.1585 35.4653Z" fill="white" stroke="#003789" stroke-width="2.47525" stroke-miterlimit="10"/>
<path d="M19.1581 29.9703C25.5522 29.9703 30.7357 24.7869 30.7357 18.3927C30.7357 11.9986 25.5522 6.81519 19.1581 6.81519C12.764 6.81519 7.58057 11.9986 7.58057 18.3927C7.58057 24.7869 12.764 29.9703 19.1581 29.9703Z" fill="white" stroke="#003789" stroke-width="2.47525" stroke-miterlimit="10"/>
</svg>
