<svg width="63" height="63" viewBox="0 0 63 63" fill="none" xmlns="http://www.w3.org/2000/svg">
<path d="M55.7397 7.24829H7.2793V55.7087H55.7397V7.24829Z" stroke="#003789" stroke-width="3.10644" stroke-miterlimit="10" stroke-dasharray="6.21 6.21"/>
<path d="M7.27957 12.8399C10.3677 12.8399 12.8712 10.3365 12.8712 7.24832C12.8712 4.16018 10.3677 1.65674 7.27957 1.65674C4.19143 1.65674 1.68799 4.16018 1.68799 7.24832C1.68799 10.3365 4.19143 12.8399 7.27957 12.8399Z" fill="#003789"/>
<path d="M55.74 12.8399C58.8282 12.8399 61.3316 10.3365 61.3316 7.24832C61.3316 4.16018 58.8282 1.65674 55.74 1.65674C52.6519 1.65674 50.1484 4.16018 50.1484 7.24832C50.1484 10.3365 52.6519 12.8399 55.74 12.8399Z" fill="#003789"/>
<path d="M7.27957 61.3004C10.3677 61.3004 12.8712 58.7969 12.8712 55.7088C12.8712 52.6206 10.3677 50.1172 7.27957 50.1172C4.19143 50.1172 1.68799 52.6206 1.68799 55.7088C1.68799 58.7969 4.19143 61.3004 7.27957 61.3004Z" fill="#003789"/>
<path d="M55.74 61.3004C58.8282 61.3004 61.3316 58.7969 61.3316 55.7088C61.3316 52.6206 58.8282 50.1172 55.74 50.1172C52.6519 50.1172 50.1484 52.6206 50.1484 55.7088C50.1484 58.7969 52.6519 61.3004 55.74 61.3004Z" fill="#003789"/>
</svg>
