<svg width="50" height="50" viewBox="0 0 50 50" fill="none" xmlns="http://www.w3.org/2000/svg">
<path d="M41.588 33.3831L43.2679 32.8336C44.3917 32.4672 44.9725 31.2263 44.5352 30.1289L42.6524 25.4045C42.8075 24.4408 42.89 23.4524 42.89 22.4441C42.89 12.1685 34.4874 3.85666 24.1804 4.00187C14.2002 4.14049 6.07813 12.3187 6.00057 22.2973C5.95107 28.6388 9.10288 34.2445 13.9362 37.6009L12.1705 46.7131H32.8983L31.9824 41.9887L35.8075 43.1223C38.1408 43.8138 40.5336 42.2378 40.8207 39.822L41.5864 33.3798L41.588 33.3831Z" stroke="#003789" stroke-width="2.47525" stroke-linecap="round" stroke-linejoin="round"/>
<path d="M27.6046 36.8302L19.5254 24.2724L22.664 23.3681L17.4165 16.2708H27.1343L31.2003 25.2906L27.2878 26.9919L27.6046 36.8302Z" stroke="#003789" stroke-width="1.9802" stroke-linecap="round" stroke-linejoin="round"/>
</svg>
