<svg width="20" height="21" viewBox="0 0 20 21" fill="none" xmlns="http://www.w3.org/2000/svg">
<g clip-path="url(#clip0_427_1988)">
<path d="M10 20.5C15.5228 20.5 20 16.0228 20 10.5C20 4.97715 15.5228 0.5 10 0.5C4.47715 0.5 0 4.97715 0 10.5C0 16.0228 4.47715 20.5 10 20.5Z" fill="url(#paint0_linear_427_1988)"/>
<path d="M9.98537 12.753L11.5112 16.5722C11.7407 17.1465 10.9954 17.605 10.5862 17.1415L7.7202 13.8928L6.82339 12.876C6.16868 12.1337 6.27942 10.9922 7.06465 10.3897L8.57742 9.22895L9.44476 8.56371C9.67675 8.38603 9.7618 8.07573 9.65359 7.80459L8.13071 3.99338C7.87977 3.36519 8.69489 2.86332 9.14245 3.37067L11.9966 6.6059L12.8935 7.62228C13.5482 8.36456 13.4374 9.50599 12.6522 10.1089L11.062 11.3291L10.1946 11.9943C9.96305 12.172 9.87758 12.4823 9.98579 12.7534L9.98537 12.753Z" fill="white"/>
</g>
<defs>
<linearGradient id="paint0_linear_427_1988" x1="0" y1="10.5" x2="20" y2="10.5" gradientUnits="userSpaceOnUse">
<stop stop-color="#F26622"/>
<stop offset="0.58" stop-color="#F89A39"/>
<stop offset="1" stop-color="#FAA21B"/>
</linearGradient>
<clipPath id="clip0_427_1988">
<rect width="20" height="20" fill="white" transform="translate(0 0.5)"/>
</clipPath>
</defs>
</svg>
