<svg width="18" height="18" viewBox="0 0 18 18" fill="none" xmlns="http://www.w3.org/2000/svg">
<g clip-path="url(#clip0_337_503)">
<path fill-rule="evenodd" clip-rule="evenodd" d="M13.3051 10.7601C13.0838 10.6385 11.9943 10.0574 11.7901 9.97635C11.5858 9.89527 11.436 9.85135 11.2794 10.0709C11.1228 10.2872 10.6699 10.777 10.5338 10.9223C10.3976 11.0676 10.2648 11.0811 10.0435 10.9595C9.82221 10.8378 9.10384 10.5743 8.27312 9.78041C7.62625 9.16216 7.20068 8.41216 7.07812 8.18243C6.95555 7.9527 7.07812 7.83784 7.19387 7.72973C7.29941 7.63176 7.42879 7.47635 7.54795 7.35135C7.6637 7.22635 7.70456 7.13176 7.78627 6.98649C7.86798 6.84122 7.83393 6.70946 7.78286 6.59459C7.7318 6.47973 7.31984 5.36149 7.14961 4.90878C6.97938 4.4527 6.78873 4.52027 6.65595 4.51689C6.52317 4.51351 6.37337 4.48649 6.22357 4.48311C6.07377 4.47635 5.82523 4.52365 5.61074 4.73986C5.39626 4.95608 4.79024 5.47635 4.74939 6.5777C4.70853 7.67905 5.47456 8.77365 5.58351 8.92568C5.68905 9.08108 7.05088 11.4662 9.30812 12.4493C11.5688 13.4324 11.579 13.1318 11.9943 13.1115C12.4097 13.0912 13.3493 12.6182 13.557 12.1047C13.7647 11.5878 13.7817 11.1419 13.7273 11.0473C13.6728 10.9527 13.5264 10.8885 13.3051 10.7703V10.7601ZM9.16172 16.0676C7.66711 16.0676 6.27804 15.6216 5.11368 14.8615L2.28788 15.7601L3.20711 13.0507C2.32533 11.848 1.80783 10.3682 1.80783 8.77027C1.80783 4.74324 5.10687 1.46959 9.16172 1.46959C13.2166 1.46959 16.519 4.74324 16.519 8.77027C16.519 12.7973 13.22 16.0709 9.16172 16.0709V16.0676ZM9.16172 0C4.28296 0 0.326839 3.92568 0.326839 8.76689C0.326839 10.4223 0.789862 11.973 1.59675 13.2939L0 18L4.89238 16.4459C6.15888 17.1419 7.61263 17.5372 9.16172 17.5372C14.0439 17.5372 18 13.6115 18 8.76689C18 3.9223 14.0439 0 9.16172 0Z" fill="white"/>
</g>
<defs>
<clipPath id="clip0_337_503">
<rect width="18" height="18" fill="white"/>
</clipPath>
</defs>
</svg>
