<svg width="22" height="22" viewBox="0 0 22 22" fill="none" xmlns="http://www.w3.org/2000/svg">
<path fill-rule="evenodd" clip-rule="evenodd" d="M5.75 1.5C3.40279 1.5 1.5 3.40279 1.5 5.75V15.75C1.5 18.0972 3.40279 20 5.75 20H15.75C18.0972 20 20 18.0972 20 15.75V5.75C20 3.40279 18.0972 1.5 15.75 1.5H5.75ZM0 5.75C0 2.57436 2.57436 0 5.75 0H15.75C18.9256 0 21.5 2.57436 21.5 5.75V15.75C21.5 18.9257 18.9256 21.5 15.75 21.5H5.75C2.57436 21.5 0 18.9257 0 15.75V5.75ZM15.5 5.25C15.5 4.83578 15.8358 4.5 16.25 4.5H16.26C16.6742 4.5 17.01 4.83578 17.01 5.25C17.01 5.66421 16.6742 6 16.26 6H16.25C15.8358 6 15.5 5.66421 15.5 5.25ZM11.27 7.4919C10.5938 7.39163 9.9032 7.50713 9.2964 7.82197C8.68961 8.13681 8.19756 8.63497 7.89023 9.24558C7.58289 9.85618 7.47591 10.5482 7.58452 11.2231C7.69312 11.898 8.01177 12.5215 8.49514 13.0049C8.9785 13.4882 9.602 13.8069 10.2769 13.9155C10.9518 14.0241 11.6438 13.9171 12.2544 13.6098C12.865 13.3024 13.3632 12.8104 13.678 12.2036C13.9929 11.5968 14.1084 10.9062 14.0081 10.23C13.9058 9.54028 13.5844 8.90168 13.0913 8.40865C12.5983 7.91559 11.9597 7.59418 11.27 7.4919ZM8.60553 6.49054C9.4924 6.03038 10.5017 5.86157 11.49 6.00812C12.4981 6.15761 13.4314 6.62736 14.152 7.34799C14.8726 8.06861 15.3424 9.00188 15.4919 10.01C15.6384 10.9983 15.4696 12.0077 15.0094 12.8945C14.5493 13.7813 13.8212 14.5004 12.9288 14.9496C12.0364 15.3988 11.025 15.5552 10.0386 15.3964C9.0522 15.2377 8.14095 14.772 7.43448 14.0655C6.72801 13.3591 6.26229 12.4478 6.10357 11.4614C5.94484 10.475 6.10119 9.46358 6.55037 8.57119C6.99956 7.67876 7.71871 6.95069 8.60553 6.49054Z" fill="white"/>
</svg>
