<svg width="24" height="24" viewBox="0 0 24 24" fill="none" xmlns="http://www.w3.org/2000/svg">
<path fill-rule="evenodd" clip-rule="evenodd" d="M7 2.75002C4.65279 2.75002 2.75 4.65281 2.75 7.00002V17C2.75 19.3472 4.65279 21.25 7 21.25H17C19.3472 21.25 21.25 19.3472 21.25 17V7.00002C21.25 4.65281 19.3472 2.75002 17 2.75002H7ZM1.25 7.00002C1.25 3.82438 3.82436 1.25002 7 1.25002H17C20.1756 1.25002 22.75 3.82438 22.75 7.00002V17C22.75 20.1757 20.1756 22.75 17 22.75H7C3.82436 22.75 1.25 20.1757 1.25 17V7.00002ZM16.75 6.50002C16.75 6.0858 17.0858 5.75002 17.5 5.75002H17.51C17.9242 5.75002 18.26 6.0858 18.26 6.50002C18.26 6.91423 17.9242 7.25002 17.51 7.25002H17.5C17.0858 7.25002 16.75 6.91423 16.75 6.50002ZM12.52 8.74192C11.8438 8.64165 11.1532 8.75715 10.5464 9.07199C9.93961 9.38683 9.44756 9.88499 9.14023 10.4956C8.83289 11.1062 8.72591 11.7982 8.83452 12.4731C8.94312 13.148 9.26177 13.7715 9.74514 14.2549C10.2285 14.7382 10.852 15.0569 11.5269 15.1655C12.2018 15.2741 12.8938 15.1671 13.5044 14.8598C14.115 14.5524 14.6132 14.0604 14.928 13.4536C15.2429 12.8468 15.3584 12.1562 15.2581 11.48C15.1558 10.7903 14.8344 10.1517 14.3413 9.65867C13.8483 9.16561 13.2097 8.8442 12.52 8.74192ZM9.85553 7.74056C10.7424 7.2804 11.7517 7.11159 12.74 7.25814C13.7481 7.40763 14.6814 7.87738 15.402 8.59801C16.1226 9.31863 16.5924 10.2519 16.7419 11.26C16.8884 12.2483 16.7196 13.2577 16.2594 14.1445C15.7993 15.0313 15.0712 15.7504 14.1788 16.1996C13.2864 16.6488 12.275 16.8052 11.2886 16.6464C10.3022 16.4877 9.39095 16.022 8.68448 15.3155C7.97801 14.6091 7.51229 13.6978 7.35357 12.7114C7.19484 11.725 7.35119 10.7136 7.80037 9.82121C8.24956 8.92878 8.96871 8.20071 9.85553 7.74056Z" fill="black"/>
</svg>
