<svg width="24" height="24" viewBox="0 0 24 24" fill="none" xmlns="http://www.w3.org/2000/svg">
<path d="M17 2H7.00003C4.23861 2 2.00003 4.23858 2.00003 7V17C2.00003 19.7614 4.23861 22 7.00003 22H17C19.7615 22 22 19.7614 22 17V7C22 4.23858 19.7615 2 17 2Z" fill="#001E83"/>
<path d="M16 11.3701C16.1234 12.2023 15.9812 13.0523 15.5937 13.7991C15.2062 14.5459 14.5931 15.1515 13.8416 15.5297C13.0901 15.908 12.2384 16.0397 11.4078 15.906C10.5771 15.7723 9.80974 15.3801 9.21482 14.7852C8.6199 14.1903 8.22771 13.4229 8.09405 12.5923C7.96038 11.7616 8.09205 10.91 8.47031 10.1584C8.84857 9.40691 9.45417 8.7938 10.201 8.4063C10.9478 8.0188 11.7977 7.87665 12.63 8.00006C13.4789 8.12594 14.2648 8.52152 14.8717 9.12836C15.4785 9.73521 15.8741 10.5211 16 11.3701Z" stroke="white" stroke-width="1.5" stroke-linecap="round" stroke-linejoin="round"/>
<path d="M17.5 6.5H17.51" stroke="white" stroke-width="1.5" stroke-linecap="round" stroke-linejoin="round"/>
</svg>
