<svg width="33" height="41" viewBox="0 0 33 41" fill="none" xmlns="http://www.w3.org/2000/svg">
<path d="M18.6816 25.793H25.8072V39.274L22.2444 36.1626L18.6816 39.274V25.793Z" fill="white" stroke="#3F3F3F" stroke-width="2.12871" stroke-linejoin="round"/>
<path d="M7.07623 25.793H14.2018V39.274L10.639 36.1626L7.07623 39.274V25.793Z" fill="white" stroke="#3F3F3F" stroke-width="2.12871" stroke-linejoin="round"/>
<path d="M16.456 31.5605C24.6707 31.5605 31.3301 24.9011 31.3301 16.6864C31.3301 8.47163 24.6707 1.81226 16.456 1.81226C8.24122 1.81226 1.58185 8.47163 1.58185 16.6864C1.58185 24.9011 8.24122 31.5605 16.456 31.5605Z" fill="white" stroke="#3F3F3F" stroke-width="2.12871" stroke-miterlimit="10"/>
<path d="M16.4559 27.6908C22.5335 27.6908 27.4603 22.7639 27.4603 16.6864C27.4603 10.6088 22.5335 5.68201 16.4559 5.68201C10.3784 5.68201 5.45154 10.6088 5.45154 16.6864C5.45154 22.7639 10.3784 27.6908 16.4559 27.6908Z" stroke="#3F3F3F" stroke-width="2.12871" stroke-miterlimit="10"/>
</svg>
