<svg width="181" height="70" viewBox="0 0 181 70" fill="none" xmlns="http://www.w3.org/2000/svg">
<g clip-path="url(#clip0_337_447)">
<path d="M17.9616 40.8267L1.90869 46.5067C3.32051 50.6933 5.46438 54.5067 8.31415 57.84L21.2035 46.5333C19.7917 44.8533 18.6936 42.9333 17.9877 40.8267H17.9616ZM22.9813 48.3733L11.8698 61.4933C15.1379 64.3733 18.8505 66.5867 22.9291 68.0533L28.5763 51.7067C26.5109 50.96 24.6285 49.84 22.9813 48.4V48.3733ZM37.0472 69.8667C37.1779 69.8933 37.3348 69.8667 37.4655 69.8667H37.0472Z" fill="white"/>
<path d="M37.0731 52.4535V69.8935C36.158 69.9735 35.2168 70.0002 34.3017 70.0002C32.1317 70.0002 29.9878 69.7869 27.8701 69.3869L31.0859 52.3735C33.0468 52.7469 35.0861 52.8002 37.0992 52.4535H37.0731Z" fill="white"/>
<path d="M48.6553 52.7202H40.7334V69.8669H48.6553V52.7202Z" fill="white"/>
<path d="M36.995 0.106802C33.9884 -0.133198 30.9556 0.0268023 28.0012 0.613469H27.9751L31.1125 17.6535H31.1386C33.0995 17.2801 35.1126 17.2535 37.0735 17.5735L36.995 0.133469V0.106802Z" fill="white"/>
<path d="M23.0598 1.94678C18.9812 3.38678 15.2425 5.60011 11.9482 8.48011L23.0336 21.6268C24.6807 20.1868 26.5631 19.0668 28.6286 18.3468L23.0598 1.94678Z" fill="white"/>
<path d="M8.34003 12.1333C5.5164 15.4666 3.37253 19.28 1.93457 23.4133L17.9613 29.1733C18.6933 27.0666 19.7914 25.1466 21.2032 23.4666L8.34003 12.1333Z" fill="white"/>
<path d="M17.2817 38.1868C17.0987 37.1201 16.9941 36.0534 16.9941 34.9868C16.9941 33.9201 17.0987 32.7734 17.3078 31.7068L0.601329 28.4268C0.183013 30.5868 0 32.7734 0 34.9868C0 37.2001 0.209158 39.3334 0.601329 41.4668L0.653618 41.6534L8.9415 39.8934H8.99379L17.3601 38.3201V38.1868H17.2817Z" fill="white"/>
<path d="M56.3679 60.5069C55.8189 60.5069 55.3221 60.3736 54.93 60.1336C54.5378 59.8936 54.2241 59.5469 54.0149 59.0936C53.8057 58.6402 53.7012 58.1336 53.7012 57.5469C53.7012 56.9602 53.8057 56.4536 54.0149 56.0002C54.2241 55.5469 54.5378 55.2003 54.93 54.9603C55.3221 54.7203 55.7666 54.5869 56.2895 54.5869C56.6294 54.5869 56.9431 54.6403 57.2569 54.7469C57.5706 54.8536 57.832 55.0402 58.0673 55.2802C58.3026 55.5202 58.4857 55.8136 58.6164 56.1869C58.7471 56.5602 58.8255 56.9869 58.8255 57.4936V57.8669H54.3025V57.0136H58.2504L57.7536 57.2802C57.7536 56.9336 57.7013 56.6136 57.5967 56.3469C57.4922 56.0802 57.3353 55.8669 57.1 55.7336C56.8908 55.5736 56.6294 55.5202 56.3156 55.5202C56.0019 55.5202 55.7405 55.6002 55.5052 55.7602C55.2699 55.9202 55.113 56.1069 54.9823 56.3736C54.8515 56.6136 54.7992 56.9069 54.7992 57.2269V57.7869C54.7992 58.1602 54.8777 58.5069 55.0084 58.7736C55.1391 59.0403 55.3221 59.2536 55.5574 59.3869C55.7927 59.5203 56.0803 59.6003 56.3941 59.6003C56.6032 59.6003 56.8124 59.5736 56.9693 59.4936C57.1523 59.4402 57.283 59.3336 57.4137 59.2003C57.5444 59.0669 57.6229 58.9336 57.6752 58.7469L58.721 58.9336C58.6425 59.2536 58.4857 59.5202 58.2765 59.7602C58.0673 60.0002 57.7797 60.1869 57.466 60.3203C57.1523 60.4536 56.7862 60.5069 56.3679 60.5069Z" fill="white"/>
<path d="M60.8908 57.0136V60.3736H59.7666V54.6402H60.8385V56.0536H60.7078C60.8647 55.5469 61.1261 55.1736 61.4399 54.9336C61.7536 54.6936 62.1458 54.5869 62.5902 54.5869C62.9824 54.5869 63.3223 54.6669 63.6099 54.8269C63.8975 54.9869 64.1328 55.2269 64.2896 55.5736C64.4465 55.9202 64.5249 56.2936 64.5249 56.7736V60.4002H63.4269V56.9069C63.4269 56.4802 63.3223 56.1602 63.1131 55.9202C62.904 55.6802 62.6164 55.5736 62.2503 55.5736C61.9889 55.5736 61.7797 55.6269 61.5706 55.7336C61.3614 55.8402 61.2046 56.0002 61.1 56.2136C60.9954 56.4269 60.917 56.6936 60.917 57.0136H60.8908Z" fill="white"/>
<path d="M68.1594 60.5069C67.6104 60.5069 67.1137 60.3736 66.7215 60.1336C66.3293 59.8936 66.0156 59.5469 65.8064 59.0936C65.5973 58.6402 65.4927 58.1336 65.4927 57.5469C65.4927 56.9602 65.5973 56.4536 65.8064 56.0002C66.0156 55.5469 66.3293 55.2003 66.7215 54.9603C67.1137 54.7203 67.5581 54.5869 68.081 54.5869C68.4209 54.5869 68.7346 54.6403 69.0484 54.7469C69.3621 54.8536 69.6235 55.0402 69.8588 55.2802C70.0941 55.5202 70.2772 55.8136 70.4079 56.1869C70.5386 56.5602 70.617 56.9869 70.617 57.4936V57.8669H66.094V57.0136H70.0419L69.5451 57.2802C69.5451 56.9336 69.4928 56.6136 69.3882 56.3469C69.2837 56.0802 69.1268 55.8669 68.8915 55.7336C68.6823 55.5736 68.4209 55.5202 68.1071 55.5202C67.7934 55.5202 67.532 55.6002 67.2967 55.7602C67.0614 55.9202 66.9045 56.1069 66.7738 56.3736C66.643 56.6136 66.5908 56.9069 66.5908 57.2269V57.7869C66.5908 58.1602 66.6692 58.5069 66.7999 58.7736C66.9306 59.0403 67.1137 59.2536 67.349 59.3869C67.5843 59.5203 67.8718 59.6003 68.1856 59.6003C68.3947 59.6003 68.6039 59.5736 68.7608 59.4936C68.9438 59.4402 69.0745 59.3336 69.2052 59.2003C69.336 59.0669 69.4144 58.9336 69.4667 58.7469L70.5125 58.9336C70.434 59.2536 70.2772 59.5202 70.068 59.7602C69.8588 60.0002 69.5713 60.1869 69.2575 60.3203C68.9438 60.4536 68.5778 60.5069 68.1594 60.5069Z" fill="white"/>
<path d="M71.5579 60.4002V54.6669H72.6298V55.5736H72.6821C72.7867 55.2536 72.9697 55.0136 73.205 54.8536C73.4403 54.6669 73.754 54.5869 74.0678 54.5869C74.1462 54.5869 74.2246 54.5869 74.3031 54.5869C74.3815 54.5869 74.4599 54.5869 74.5122 54.5869V55.6536C74.5122 55.6536 74.3815 55.6536 74.2769 55.6269C74.1724 55.6269 74.0416 55.6269 73.9371 55.6269C73.7018 55.6269 73.4664 55.6802 73.2834 55.7869C73.1004 55.8936 72.9436 56.0536 72.8128 56.2402C72.7083 56.4269 72.656 56.6669 72.656 56.9336V60.4002H71.5317H71.5579Z" fill="white"/>
<path d="M77.4666 62.6673C77.0221 62.6673 76.6299 62.614 76.3162 62.4806C76.0025 62.374 75.7149 62.214 75.5057 62.0006C75.2966 61.7873 75.1397 61.574 75.0612 61.3073L76.0286 60.9606C76.0286 60.9606 76.1855 61.2006 76.2901 61.334C76.3946 61.4673 76.5515 61.5473 76.7345 61.654C76.9175 61.7606 77.1528 61.7873 77.4404 61.7873C77.8849 61.7873 78.2248 61.6806 78.4862 61.4673C78.7477 61.254 78.8784 60.934 78.8784 60.4806V59.414H78.7999C78.7215 59.5473 78.6169 59.7073 78.4862 59.8406C78.3555 59.974 78.1725 60.1073 77.9633 60.214C77.7542 60.3206 77.4927 60.374 77.1528 60.374C76.7084 60.374 76.2901 60.2673 75.9502 60.054C75.6103 59.8406 75.3227 59.5206 75.1135 59.094C74.9044 58.6673 74.7998 58.1606 74.7998 57.5473C74.7998 56.934 74.9044 56.4273 75.1135 56.0006C75.3227 55.574 75.6103 55.2273 75.9502 54.9873C76.2901 54.7473 76.7084 54.6406 77.179 54.6406C77.4927 54.6406 77.7803 54.694 77.9895 54.8006C78.1986 54.9073 78.3816 55.0406 78.5124 55.2006C78.6431 55.3606 78.7477 55.494 78.8261 55.654H78.8784V54.7473H79.9503V60.534C79.9503 61.0406 79.8457 61.4673 79.6104 61.7873C79.3751 62.1073 79.0875 62.3473 78.6954 62.5073C78.3032 62.6673 77.8849 62.7473 77.4143 62.7473L77.4666 62.6673ZM77.4666 59.3873C77.7803 59.3873 78.0418 59.3073 78.2771 59.1473C78.4862 58.9873 78.6692 58.774 78.7738 58.4806C78.8784 58.1873 78.9568 57.8673 78.9568 57.4673C78.9568 57.0673 78.9045 56.7473 78.7738 56.454C78.6692 56.1606 78.4862 55.9473 78.2771 55.7606C78.0679 55.6006 77.7803 55.5206 77.4666 55.5206C77.1528 55.5206 76.8652 55.6006 76.6561 55.7606C76.4469 55.9206 76.2639 56.1606 76.1593 56.454C76.0547 56.7473 75.9763 57.0673 75.9763 57.4673C75.9763 57.8673 76.0286 58.1873 76.1593 58.4806C76.2901 58.774 76.4469 58.9873 76.6561 59.1473C76.8652 59.3073 77.1528 59.3873 77.4666 59.3873Z" fill="white"/>
<path d="M81.2578 60.4004V54.6671H82.382V60.4004H81.2578ZM81.3624 53.9471L82.0944 52.4004H83.2448L82.2252 53.9471H81.3885H81.3624Z" fill="white"/>
<path d="M85.2054 60.5072C84.8394 60.5072 84.5257 60.4272 84.2381 60.2939C83.9505 60.1606 83.7152 59.9739 83.5583 59.7072C83.4014 59.4405 83.2969 59.1206 83.2969 58.7472C83.2969 58.4272 83.3492 58.1605 83.4799 57.9472C83.6106 57.7339 83.7675 57.5739 83.9766 57.4406C84.1858 57.3072 84.4211 57.2272 84.6825 57.1739C84.944 57.1206 85.2054 57.0672 85.4669 57.0405C85.8068 56.9872 86.0682 56.9606 86.2774 56.9339C86.4865 56.9072 86.6434 56.8539 86.7218 56.8005C86.8264 56.7472 86.8787 56.6406 86.8787 56.5072C86.8787 56.2672 86.8264 56.0805 86.748 55.9472C86.6695 55.7872 86.5388 55.6806 86.382 55.6006C86.2251 55.5206 86.0159 55.4939 85.7806 55.4939C85.5453 55.4939 85.3362 55.5206 85.1531 55.6006C84.9701 55.6806 84.8394 55.7872 84.7348 55.8939C84.6303 56.0005 84.5518 56.1339 84.4995 56.2939L83.4537 56.0806C83.5583 55.7339 83.7152 55.4405 83.9505 55.2272C84.1858 55.0139 84.4472 54.8272 84.761 54.7206C85.0747 54.6139 85.4146 54.5605 85.7806 54.5605C86.0421 54.5605 86.2774 54.5872 86.5388 54.6672C86.8003 54.7205 87.0356 54.8272 87.2447 54.9872C87.4539 55.1472 87.6369 55.3339 87.7676 55.6006C87.8983 55.8672 87.9768 56.1872 87.9768 56.5605V60.3739H86.9049V59.5739H86.8526C86.7741 59.7339 86.6695 59.8672 86.5388 60.0005C86.4081 60.1339 86.2251 60.2405 85.9898 60.3472C85.7806 60.4272 85.493 60.4806 85.2054 60.4806V60.5072ZM85.4407 59.6006C85.7545 59.6006 86.0159 59.5472 86.2251 59.4139C86.4342 59.2806 86.5911 59.1206 86.7218 58.9339C86.8264 58.7472 86.8787 58.5339 86.8787 58.2939V57.5739C86.8787 57.5739 86.7741 57.6539 86.6695 57.6805C86.565 57.7072 86.4342 57.7339 86.3035 57.7605C86.1728 57.7872 86.0159 57.8139 85.8852 57.8406C85.7545 57.8406 85.6238 57.8672 85.5192 57.8939C85.31 57.9205 85.127 57.9739 84.944 58.0272C84.761 58.0805 84.6303 58.1872 84.5257 58.2939C84.4211 58.4006 84.3688 58.5606 84.3688 58.7739C84.3688 58.9606 84.4211 59.0939 84.4995 59.2272C84.578 59.3605 84.7087 59.4405 84.8656 59.4939C85.0224 59.5472 85.2054 59.5739 85.4146 59.5739L85.4407 59.6006Z" fill="white"/>
<path d="M93.7809 60.5336C93.3626 60.5336 92.9966 60.4802 92.6829 60.3469C92.3691 60.2136 92.1077 60.0269 91.8985 59.7869C91.6894 59.5469 91.5586 59.2536 91.5063 58.9069L92.5521 58.7203C92.6306 59.0136 92.7613 59.2536 92.9705 59.3869C93.1796 59.5203 93.4411 59.6003 93.7809 59.6003C94.147 59.6003 94.4084 59.5203 94.6437 59.3869C94.8529 59.2269 94.9575 59.0669 94.9575 58.8269C94.9575 58.6402 94.879 58.4802 94.7483 58.3736C94.6176 58.2669 94.4084 58.1603 94.147 58.1069L93.2058 57.8936C92.6829 57.7869 92.2907 57.5736 92.0292 57.3069C91.7678 57.0402 91.6371 56.6936 91.6371 56.2936C91.6371 55.9469 91.7416 55.6536 91.9247 55.3869C92.1077 55.1203 92.3691 54.9336 92.6829 54.8002C92.9966 54.6669 93.3888 54.5869 93.8071 54.5869C94.2254 54.5869 94.5653 54.6403 94.879 54.7736C95.1666 54.9069 95.4281 55.0669 95.5849 55.3069C95.7679 55.5202 95.8987 55.8136 95.951 56.1069L94.9313 56.2936C94.879 56.0803 94.7483 55.8936 94.5914 55.7336C94.4084 55.5736 94.147 55.4936 93.8332 55.4936C93.5195 55.4936 93.258 55.5736 93.075 55.7069C92.892 55.8402 92.7613 56.0269 92.7613 56.2402C92.7613 56.4269 92.8397 56.5869 92.9705 56.6936C93.1012 56.8002 93.3365 56.9069 93.6241 56.9869L94.5391 57.2003C95.062 57.3336 95.4542 57.5202 95.7157 57.7602C95.9771 58.0269 96.0817 58.3469 96.0817 58.7469C96.0817 59.0936 95.9771 59.4136 95.7941 59.6802C95.6111 59.9469 95.3235 60.1603 94.9836 60.3203C94.6437 60.4803 94.2515 60.5336 93.7809 60.5336Z" fill="white"/>
<path d="M99.4023 60.5069C98.8794 60.5069 98.4088 60.3736 98.0167 60.1336C97.6245 59.8936 97.3108 59.5469 97.1016 59.0936C96.8924 58.6402 96.7617 58.1336 96.7617 57.5469C96.7617 56.9602 96.8663 56.4269 97.1016 56.0002C97.3108 55.5469 97.6245 55.2003 98.0167 54.9603C98.4088 54.7203 98.8794 54.5869 99.4023 54.5869C99.9252 54.5869 100.396 54.7203 100.788 54.9603C101.18 55.2003 101.494 55.5469 101.703 56.0002C101.912 56.4536 102.017 56.9602 102.017 57.5469C102.017 58.1336 101.912 58.6402 101.703 59.0936C101.494 59.5469 101.18 59.8936 100.788 60.1336C100.396 60.3736 99.9252 60.5069 99.4023 60.5069ZM99.4023 59.5469C99.7422 59.5469 100.03 59.4669 100.239 59.2802C100.448 59.0936 100.631 58.8536 100.736 58.5602C100.84 58.2669 100.893 57.9202 100.893 57.5469C100.893 57.1736 100.84 56.8269 100.736 56.5336C100.631 56.2403 100.448 56.0003 100.239 55.8136C100.03 55.6269 99.7422 55.5469 99.4023 55.5469C99.0625 55.5469 98.7749 55.6269 98.5657 55.8136C98.3566 56.0003 98.1735 56.2403 98.069 56.5336C97.9644 56.8269 97.9121 57.1736 97.9121 57.5469C97.9121 57.9202 97.9644 58.2402 98.069 58.5602C98.1735 58.8802 98.3566 59.0936 98.5657 59.2802C98.7749 59.4669 99.0625 59.5469 99.4023 59.5469Z" fill="white"/>
<path d="M104.134 52.667V60.4003H103.01V52.667H104.134Z" fill="white"/>
<path d="M106.984 60.5072C106.618 60.5072 106.304 60.4272 106.017 60.2939C105.729 60.1606 105.494 59.9739 105.337 59.7072C105.18 59.4405 105.076 59.1206 105.076 58.7472C105.076 58.4272 105.128 58.1605 105.259 57.9472C105.389 57.7339 105.546 57.5739 105.755 57.4406C105.965 57.3072 106.2 57.2272 106.461 57.1739C106.723 57.1206 106.984 57.0672 107.246 57.0405C107.586 56.9872 107.847 56.9606 108.056 56.9339C108.265 56.9072 108.422 56.8539 108.501 56.8005C108.605 56.7472 108.658 56.6406 108.658 56.5072C108.658 56.2672 108.605 56.0805 108.527 55.9472C108.448 55.7872 108.318 55.6806 108.161 55.6006C108.004 55.5206 107.795 55.4939 107.559 55.4939C107.324 55.4939 107.115 55.5206 106.932 55.6006C106.749 55.6806 106.618 55.7872 106.514 55.8939C106.409 56.0005 106.331 56.1339 106.278 56.2939L105.233 56.0806C105.337 55.7339 105.494 55.4405 105.729 55.2272C105.965 55.0139 106.226 54.8272 106.54 54.7206C106.854 54.6139 107.193 54.5605 107.559 54.5605C107.821 54.5605 108.056 54.5872 108.318 54.6672C108.579 54.7205 108.814 54.8272 109.024 54.9872C109.233 55.1472 109.416 55.3339 109.546 55.6006C109.677 55.8672 109.756 56.1872 109.756 56.5605V60.3739H108.684V59.5739H108.631C108.553 59.7339 108.448 59.8672 108.318 60.0005C108.187 60.1339 108.004 60.2405 107.769 60.3472C107.559 60.4272 107.272 60.4806 106.984 60.4806V60.5072ZM107.22 59.6006C107.533 59.6006 107.795 59.5472 108.004 59.4139C108.213 59.2806 108.37 59.1206 108.501 58.9339C108.605 58.7472 108.658 58.5339 108.658 58.2939V57.5739C108.658 57.5739 108.553 57.6539 108.448 57.6805C108.344 57.7072 108.213 57.7339 108.082 57.7605C107.952 57.7872 107.795 57.8139 107.664 57.8406C107.533 57.8406 107.403 57.8672 107.298 57.8939C107.089 57.9205 106.906 57.9739 106.723 58.0272C106.54 58.0805 106.409 58.1872 106.304 58.2939C106.2 58.4006 106.148 58.5606 106.148 58.7739C106.148 58.9606 106.2 59.0939 106.278 59.2272C106.357 59.3605 106.488 59.4405 106.644 59.4939C106.801 59.5472 106.984 59.5739 107.193 59.5739L107.22 59.6006Z" fill="white"/>
<path d="M110.984 60.4002V54.6669H112.056V55.5736H112.108C112.213 55.2536 112.396 55.0136 112.631 54.8536C112.867 54.6669 113.18 54.5869 113.494 54.5869C113.572 54.5869 113.651 54.5869 113.729 54.5869C113.808 54.5869 113.886 54.5869 113.939 54.5869V55.6536C113.939 55.6536 113.808 55.6536 113.703 55.6269C113.599 55.6269 113.468 55.6269 113.363 55.6269C113.128 55.6269 112.893 55.6802 112.71 55.7869C112.527 55.8936 112.37 56.0536 112.239 56.2402C112.135 56.4269 112.082 56.6669 112.082 56.9336V60.4002H110.958H110.984Z" fill="white"/>
<path d="M117.233 62.5602V54.6669H118.305V55.5736H118.383C118.461 55.4402 118.566 55.2803 118.697 55.1469C118.828 55.0136 119.011 54.8536 119.22 54.7469C119.429 54.6403 119.716 54.5869 120.03 54.5869C120.501 54.5869 120.893 54.6936 121.259 54.9336C121.599 55.1736 121.886 55.5202 122.096 55.9469C122.305 56.4002 122.409 56.9069 122.409 57.5202C122.409 58.1336 122.305 58.6669 122.096 59.0936C121.886 59.5202 121.625 59.8669 121.259 60.1069C120.893 60.3469 120.501 60.4802 120.03 60.4802C119.716 60.4802 119.455 60.4269 119.22 60.3203C119.011 60.2136 118.828 60.0802 118.697 59.9202C118.566 59.7602 118.461 59.6269 118.383 59.4669H118.331V62.5069H117.207L117.233 62.5602ZM119.795 59.5469C120.109 59.5469 120.37 59.4669 120.605 59.2802C120.841 59.0936 120.998 58.8802 121.102 58.5602C121.207 58.2402 121.285 57.9202 121.285 57.5202C121.285 57.1202 121.233 56.7736 121.102 56.4802C120.998 56.1869 120.815 55.9469 120.605 55.7869C120.396 55.6269 120.109 55.5202 119.795 55.5202C119.481 55.5202 119.22 55.6002 118.984 55.7602C118.775 55.9202 118.592 56.1602 118.488 56.4536C118.383 56.7469 118.305 57.0936 118.305 57.4936C118.305 57.8936 118.357 58.2403 118.488 58.5336C118.592 58.8269 118.775 59.0669 118.984 59.2269C119.194 59.3869 119.481 59.4669 119.795 59.4669V59.5469Z" fill="white"/>
<path d="M125.05 60.5072C124.684 60.5072 124.37 60.4272 124.083 60.2939C123.795 60.1606 123.56 59.9739 123.403 59.7072C123.246 59.4405 123.142 59.1206 123.142 58.7472C123.142 58.4272 123.194 58.1605 123.325 57.9472C123.455 57.7339 123.612 57.5739 123.821 57.4406C124.031 57.3072 124.266 57.2272 124.527 57.1739C124.789 57.1206 125.05 57.0672 125.312 57.0405C125.652 56.9872 125.913 56.9606 126.122 56.9339C126.331 56.9072 126.488 56.8539 126.567 56.8005C126.671 56.7472 126.723 56.6406 126.723 56.5072C126.723 56.2672 126.671 56.0805 126.593 55.9472C126.514 55.7872 126.384 55.6806 126.227 55.6006C126.07 55.5206 125.861 55.4939 125.625 55.4939C125.39 55.4939 125.181 55.5206 124.998 55.6006C124.815 55.6806 124.684 55.7872 124.58 55.8939C124.475 56.0005 124.397 56.1339 124.344 56.2939L123.298 56.0806C123.403 55.7339 123.56 55.4405 123.795 55.2272C124.031 55.0139 124.292 54.8272 124.606 54.7206C124.919 54.6139 125.259 54.5605 125.625 54.5605C125.887 54.5605 126.122 54.5872 126.384 54.6672C126.645 54.7205 126.88 54.8272 127.089 54.9872C127.299 55.1472 127.482 55.3339 127.612 55.6006C127.743 55.8672 127.822 56.1872 127.822 56.5605V60.3739H126.75V59.5739H126.697C126.619 59.7339 126.514 59.8672 126.384 60.0005C126.253 60.1339 126.07 60.2405 125.835 60.3472C125.625 60.4272 125.338 60.4806 125.05 60.4806V60.5072ZM125.285 59.6006C125.599 59.6006 125.861 59.5472 126.07 59.4139C126.279 59.2806 126.436 59.1206 126.567 58.9339C126.671 58.7472 126.723 58.5339 126.723 58.2939V57.5739C126.723 57.5739 126.619 57.6539 126.514 57.6805C126.41 57.7072 126.279 57.7339 126.148 57.7605C126.018 57.7872 125.861 57.8139 125.73 57.8406C125.599 57.8406 125.468 57.8672 125.364 57.8939C125.155 57.9205 124.972 57.9739 124.789 58.0272C124.606 58.0805 124.475 58.1872 124.37 58.2939C124.266 58.4006 124.214 58.5606 124.214 58.7739C124.214 58.9606 124.266 59.0939 124.344 59.2272C124.423 59.3605 124.553 59.4405 124.71 59.4939C124.867 59.5472 125.05 59.5739 125.259 59.5739L125.285 59.6006Z" fill="white"/>
<path d="M129.076 60.4002V54.6669H130.148V55.5736H130.201C130.305 55.2536 130.488 55.0136 130.724 54.8536C130.959 54.6669 131.273 54.5869 131.586 54.5869C131.665 54.5869 131.743 54.5869 131.822 54.5869C131.9 54.5869 131.979 54.5869 132.031 54.5869V55.6536C132.031 55.6536 131.9 55.6536 131.795 55.6269C131.691 55.6269 131.56 55.6269 131.456 55.6269C131.22 55.6269 130.985 55.6802 130.802 55.7869C130.619 55.8936 130.462 56.0536 130.331 56.2402C130.227 56.4269 130.175 56.6669 130.175 56.9336V60.4002H129.05H129.076Z" fill="white"/>
<path d="M134.331 60.5072C133.965 60.5072 133.652 60.4272 133.364 60.2939C133.076 60.1606 132.841 59.9739 132.684 59.7072C132.527 59.4405 132.423 59.1206 132.423 58.7472C132.423 58.4272 132.475 58.1605 132.606 57.9472C132.737 57.7339 132.893 57.5739 133.103 57.4406C133.312 57.3072 133.547 57.2272 133.809 57.1739C134.07 57.1206 134.331 57.0672 134.593 57.0405C134.933 56.9872 135.194 56.9606 135.403 56.9339C135.613 56.9072 135.769 56.8539 135.848 56.8005C135.952 56.7472 136.005 56.6406 136.005 56.5072C136.005 56.2672 135.952 56.0805 135.874 55.9472C135.796 55.7872 135.665 55.6806 135.508 55.6006C135.351 55.5206 135.142 55.4939 134.907 55.4939C134.671 55.4939 134.462 55.5206 134.279 55.6006C134.096 55.6806 133.965 55.7872 133.861 55.8939C133.756 56.0005 133.678 56.1339 133.626 56.2939L132.58 56.0806C132.684 55.7339 132.841 55.4405 133.076 55.2272C133.312 55.0139 133.573 54.8272 133.887 54.7206C134.201 54.6139 134.541 54.5605 134.907 54.5605C135.168 54.5605 135.403 54.5872 135.665 54.6672C135.926 54.7205 136.162 54.8272 136.371 54.9872C136.58 55.1472 136.763 55.3339 136.894 55.6006C137.024 55.8672 137.103 56.1872 137.103 56.5605V60.3739H136.031V59.5739H135.979C135.9 59.7339 135.796 59.8672 135.665 60.0005C135.534 60.1339 135.351 60.2405 135.116 60.3472C134.907 60.4272 134.619 60.4806 134.331 60.4806V60.5072ZM134.567 59.6006C134.88 59.6006 135.142 59.5472 135.351 59.4139C135.56 59.2806 135.717 59.1206 135.848 58.9339C135.952 58.7472 136.005 58.5339 136.005 58.2939V57.5739C136.005 57.5739 135.9 57.6539 135.796 57.6805C135.691 57.7072 135.56 57.7339 135.429 57.7605C135.299 57.7872 135.142 57.8139 135.011 57.8406C134.88 57.8406 134.75 57.8672 134.645 57.8939C134.436 57.9205 134.253 57.9739 134.07 58.0272C133.887 58.0805 133.756 58.1872 133.652 58.2939C133.547 58.4006 133.495 58.5606 133.495 58.7739C133.495 58.9606 133.547 59.0939 133.626 59.2272C133.704 59.3605 133.835 59.4405 133.992 59.4939C134.148 59.5472 134.331 59.5739 134.541 59.5739L134.567 59.6006Z" fill="white"/>
<path d="M143.325 54.6672V55.6006H140.24V54.6672H143.325ZM141.077 53.2539H142.201V58.8539C142.201 59.0672 142.253 59.2539 142.332 59.3339C142.41 59.4139 142.567 59.4939 142.802 59.4939C142.881 59.4939 142.959 59.4939 143.038 59.4939C143.142 59.4939 143.221 59.4939 143.273 59.4672L143.43 60.3739C143.43 60.3739 143.195 60.4272 143.064 60.4539C142.933 60.4806 142.802 60.4539 142.672 60.4539C142.149 60.4539 141.757 60.3206 141.495 60.0806C141.208 59.8139 141.077 59.4406 141.077 58.9606V53.2806V53.2539Z" fill="white"/>
<path d="M146.463 60.5069C145.94 60.5069 145.469 60.3736 145.077 60.1336C144.685 59.8936 144.371 59.5469 144.162 59.0936C143.953 58.6402 143.822 58.1336 143.822 57.5469C143.822 56.9602 143.927 56.4269 144.162 56.0002C144.371 55.5469 144.685 55.2003 145.077 54.9603C145.469 54.7203 145.94 54.5869 146.463 54.5869C146.986 54.5869 147.456 54.7203 147.849 54.9603C148.241 55.2003 148.554 55.5469 148.764 56.0002C148.973 56.4536 149.077 56.9602 149.077 57.5469C149.077 58.1336 148.973 58.6402 148.764 59.0936C148.554 59.5469 148.241 59.8936 147.849 60.1336C147.456 60.3736 146.986 60.5069 146.463 60.5069ZM146.463 59.5469C146.803 59.5469 147.09 59.4669 147.3 59.2802C147.509 59.0936 147.692 58.8536 147.796 58.5602C147.901 58.2669 147.953 57.9202 147.953 57.5469C147.953 57.1736 147.901 56.8269 147.796 56.5336C147.692 56.2403 147.509 56.0003 147.3 55.8136C147.09 55.6269 146.803 55.5469 146.463 55.5469C146.123 55.5469 145.835 55.6269 145.626 55.8136C145.417 56.0003 145.234 56.2403 145.13 56.5336C145.025 56.8269 144.973 57.1736 144.973 57.5469C144.973 57.9202 145.025 58.2402 145.13 58.5602C145.234 58.8802 145.417 59.0936 145.626 59.2802C145.835 59.4669 146.123 59.5469 146.463 59.5469Z" fill="white"/>
<path d="M152.188 60.5072C151.718 60.5072 151.325 60.4005 150.959 60.1338C150.593 59.8938 150.332 59.5472 150.123 59.1205C149.914 58.6938 149.809 58.1605 149.809 57.5472C149.809 56.9338 149.914 56.4005 150.123 55.9738C150.332 55.5205 150.593 55.2005 150.959 54.9605C151.325 54.7205 151.718 54.6138 152.188 54.6138C152.502 54.6138 152.79 54.6672 152.999 54.7738C153.208 54.8805 153.391 55.0138 153.522 55.1738C153.652 55.3338 153.757 55.4672 153.835 55.6005H153.888V52.6938H154.986V60.4272H153.914V59.5472H153.835C153.757 59.6805 153.652 59.8405 153.522 60.0005C153.391 60.1605 153.208 60.2938 152.999 60.4005C152.79 60.5072 152.528 60.5605 152.188 60.5605V60.5072ZM152.424 59.5472C152.737 59.5472 152.999 59.4672 153.234 59.3072C153.443 59.1472 153.626 58.9072 153.731 58.6138C153.835 58.3205 153.914 57.9738 153.914 57.5738C153.914 57.1738 153.862 56.8272 153.731 56.5338C153.626 56.2405 153.443 56.0005 153.234 55.8405C153.025 55.6805 152.737 55.6005 152.424 55.6005C152.11 55.6005 151.848 55.6805 151.613 55.8672C151.378 56.0538 151.221 56.2672 151.116 56.5605C151.012 56.8538 150.933 57.2005 150.933 57.6005C150.933 58.0005 150.986 58.3205 151.116 58.6405C151.221 58.9338 151.404 59.1738 151.613 59.3605C151.822 59.5472 152.11 59.6272 152.424 59.6272V59.5472Z" fill="white"/>
<path d="M158.594 60.5069C158.071 60.5069 157.6 60.3736 157.208 60.1336C156.816 59.8936 156.502 59.5469 156.293 59.0936C156.084 58.6402 155.953 58.1336 155.953 57.5469C155.953 56.9602 156.058 56.4269 156.293 56.0002C156.502 55.5469 156.816 55.2003 157.208 54.9603C157.6 54.7203 158.071 54.5869 158.594 54.5869C159.117 54.5869 159.587 54.7203 159.979 54.9603C160.372 55.2003 160.685 55.5469 160.894 56.0002C161.104 56.4536 161.208 56.9602 161.208 57.5469C161.208 58.1336 161.104 58.6402 160.894 59.0936C160.685 59.5469 160.372 59.8936 159.979 60.1336C159.587 60.3736 159.117 60.5069 158.594 60.5069ZM158.594 59.5469C158.934 59.5469 159.221 59.4669 159.43 59.2802C159.64 59.0936 159.823 58.8536 159.927 58.5602C160.032 58.2669 160.084 57.9202 160.084 57.5469C160.084 57.1736 160.032 56.8269 159.927 56.5336C159.823 56.2403 159.64 56.0003 159.43 55.8136C159.221 55.6269 158.934 55.5469 158.594 55.5469C158.254 55.5469 157.966 55.6269 157.757 55.8136C157.548 56.0003 157.365 56.2403 157.26 56.5336C157.156 56.8269 157.103 57.1736 157.103 57.5469C157.103 57.9202 157.156 58.2402 157.26 58.5602C157.365 58.8802 157.548 59.0936 157.757 59.2802C157.966 59.4669 158.254 59.5469 158.594 59.5469Z" fill="white"/>
<path d="M166.647 60.4805C166.254 60.4805 165.915 60.4005 165.627 60.2405C165.339 60.0805 165.104 59.8405 164.947 59.5205C164.79 59.2005 164.712 58.8005 164.712 58.3205V54.6938H165.836V58.1605C165.836 58.5872 165.941 58.9072 166.15 59.1472C166.359 59.3872 166.647 59.4938 167.039 59.4938C167.3 59.4938 167.509 59.4405 167.719 59.3338C167.928 59.2272 168.058 59.0672 168.189 58.8538C168.32 58.6405 168.372 58.3738 168.372 58.0538V54.6938H169.496V60.4272H168.424V59.0138H168.555C168.398 59.5205 168.137 59.8938 167.823 60.1338C167.509 60.3738 167.143 60.4805 166.699 60.4805H166.647Z" fill="white"/>
<path d="M172.712 60.5336C172.294 60.5336 171.928 60.4802 171.614 60.3469C171.3 60.2136 171.039 60.0269 170.83 59.7869C170.62 59.5469 170.49 59.2536 170.438 58.9069L171.483 58.7203C171.562 59.0136 171.692 59.2536 171.902 59.3869C172.111 59.5203 172.372 59.6003 172.712 59.6003C173.078 59.6003 173.34 59.5203 173.575 59.3869C173.784 59.2269 173.889 59.0669 173.889 58.8269C173.889 58.6402 173.81 58.4802 173.679 58.3736C173.549 58.2669 173.34 58.1603 173.078 58.1069L172.137 57.8936C171.614 57.7869 171.222 57.5736 170.96 57.3069C170.699 57.0402 170.568 56.6936 170.568 56.2936C170.568 55.9469 170.673 55.6536 170.856 55.3869C171.039 55.1203 171.3 54.9336 171.614 54.8002C171.928 54.6669 172.32 54.5869 172.738 54.5869C173.157 54.5869 173.496 54.6403 173.81 54.7736C174.098 54.9069 174.359 55.0669 174.516 55.3069C174.699 55.5202 174.83 55.8136 174.882 56.1069L173.862 56.2936C173.81 56.0803 173.679 55.8936 173.523 55.7336C173.34 55.5736 173.078 55.4936 172.764 55.4936C172.451 55.4936 172.189 55.5736 172.006 55.7069C171.823 55.8402 171.692 56.0269 171.692 56.2402C171.692 56.4269 171.771 56.5869 171.902 56.6936C172.032 56.8002 172.268 56.9069 172.555 56.9869L173.47 57.2003C173.993 57.3336 174.385 57.5202 174.647 57.7602C174.908 58.0269 175.013 58.3469 175.013 58.7469C175.013 59.0936 174.908 59.4136 174.725 59.6802C174.542 59.9469 174.255 60.1603 173.915 60.3203C173.575 60.4803 173.183 60.5336 172.712 60.5336Z" fill="white"/>
<path d="M178.359 60.5069C177.836 60.5069 177.366 60.3736 176.974 60.1336C176.582 59.8936 176.268 59.5469 176.059 59.0936C175.849 58.6402 175.719 58.1336 175.719 57.5469C175.719 56.9602 175.823 56.4269 176.059 56.0002C176.268 55.5469 176.582 55.2003 176.974 54.9603C177.366 54.7203 177.836 54.5869 178.359 54.5869C178.882 54.5869 179.353 54.7203 179.745 54.9603C180.137 55.2003 180.451 55.5469 180.66 56.0002C180.869 56.4536 180.974 56.9602 180.974 57.5469C180.974 58.1336 180.869 58.6402 180.66 59.0936C180.451 59.5469 180.137 59.8936 179.745 60.1336C179.353 60.3736 178.882 60.5069 178.359 60.5069ZM178.359 59.5469C178.699 59.5469 178.987 59.4669 179.196 59.2802C179.405 59.0936 179.588 58.8536 179.693 58.5602C179.797 58.2669 179.85 57.9202 179.85 57.5469C179.85 57.1736 179.797 56.8269 179.693 56.5336C179.588 56.2403 179.405 56.0003 179.196 55.8136C178.987 55.6269 178.699 55.5469 178.359 55.5469C178.019 55.5469 177.732 55.6269 177.523 55.8136C177.314 56.0003 177.131 56.2403 177.026 56.5336C176.921 56.8269 176.869 57.1736 176.869 57.5469C176.869 57.9202 176.921 58.2402 177.026 58.5602C177.131 58.8802 177.314 59.0936 177.523 59.2802C177.732 59.4669 178.019 59.5469 178.359 59.5469Z" fill="white"/>
<path d="M33.047 47.8134C30.5633 47.8134 28.707 47.5201 27.086 47.1201C26.7723 47.0134 26.4586 46.8267 26.4586 46.4801V43.3334C26.4586 42.8801 26.72 42.7201 27.0338 42.7201H27.1383C28.4194 42.8534 31.8967 43.1201 33.1255 43.1201C35.2955 43.1201 35.923 42.4001 35.923 40.8801C35.923 39.9467 35.4785 39.4401 33.8314 38.4267L29.4914 35.7867C26.5632 34.0267 25.7788 32.0001 25.7788 29.6534C25.7788 26.1067 27.7397 23.3867 33.8575 23.3867C36.1583 23.3867 39.3479 23.7867 40.5506 24.1067C40.812 24.1601 41.0212 24.3201 41.0212 24.6934V27.9467C41.0212 28.24 40.8905 28.5067 40.4983 28.5067H40.446C39.5571 28.4534 35.8968 28.1601 33.753 28.1601C31.949 28.1601 31.2953 28.7201 31.2953 29.8667C31.2953 30.7734 31.7137 31.1734 33.4131 32.1067L37.4394 34.3201C40.7074 36.1067 41.701 38.2401 41.701 40.8534C41.701 44.2667 39.5048 47.8934 33.0993 47.8934L33.047 47.8134Z" fill="white"/>
<path d="M53.6755 47.8137C48.4727 47.8137 44.3418 44.9604 44.3418 37.4937V33.6804C44.3418 26.2137 48.4727 23.3604 53.6755 23.3604C58.8783 23.3604 63.0091 26.2137 63.0091 33.6804V37.4937C63.0091 44.9604 58.8783 47.8137 53.6755 47.8137ZM57.5972 33.6804C57.5972 29.8137 56.3422 28.187 53.6755 28.187C51.0087 28.187 49.806 29.8404 49.806 33.6804V37.4937C49.806 41.3604 51.0349 42.987 53.6755 42.987C56.3161 42.987 57.5972 41.3337 57.5972 37.4937V33.6804Z" fill="white"/>
<path d="M79.3754 47.3867C78.3296 47.6 75.8981 47.8133 74.251 47.8133C70.1986 47.8133 66.5645 46.7467 66.5645 40.9067V24.2933C66.5645 23.9467 66.852 23.6533 67.1919 23.6533H71.3228C71.6627 23.6533 71.9503 23.9467 71.9503 24.2933V40.9067C71.9503 42.5867 72.4993 43.0933 73.9634 43.0933H79.3754C79.7153 43.0933 80.0028 43.3867 80.0028 43.7333V46.72C80.0028 47.1467 79.8198 47.3067 79.3754 47.3867Z" fill="white"/>
<path d="M99.4806 47.5202H95.3236C94.9837 47.5202 94.7484 47.2269 94.7484 46.8802V39.0669H87.8985V46.8802C87.8985 47.2269 87.6371 47.5202 87.2972 47.5202H83.1402C82.8003 47.5202 82.5127 47.2269 82.5127 46.8802V30.4802C82.5127 24.6936 85.9377 23.4136 90.1731 23.4136H92.4738C96.7093 23.4136 100.108 24.6936 100.108 30.4802V46.8802C100.108 47.2269 99.8205 47.5202 99.4806 47.5202ZM94.7484 30.4802C94.7484 28.7202 94.2517 28.1602 92.4738 28.1602H90.1731C88.4476 28.1602 87.8985 28.7202 87.8985 30.4802V34.5336H94.7484V30.4802Z" fill="white"/>
<path d="M121.782 47.5202H116.972C116.632 47.5202 116.501 47.2002 116.344 46.8802L112.109 38.7468H111.769C111.115 38.7735 110.122 38.7202 109.52 38.7202V46.8802C109.52 47.2268 109.233 47.5202 108.893 47.5202H104.788C104.448 47.5202 104.161 47.2268 104.161 46.8802V25.3068C104.161 24.2135 104.605 23.9202 105.572 23.7602C107.01 23.5468 109.703 23.3335 111.978 23.3335C117.338 23.3335 121.468 25.1735 121.468 30.8535V31.2802C121.468 34.6935 119.717 36.7735 117.39 37.7068L122.148 46.7735C122.148 46.7735 122.253 47.0402 122.253 47.1202C122.253 47.3335 122.122 47.4935 121.782 47.4935V47.5202ZM116.109 30.8802C116.109 28.9068 114.619 28.0268 111.978 28.0268C111.533 28.0268 109.912 28.0802 109.52 28.1335V34.2935C109.86 34.3202 111.403 34.3468 111.769 34.3468C115.089 34.3468 116.109 33.4668 116.109 31.2802V30.8535V30.8802Z" fill="white"/>
<path d="M140.11 43.6267C139.848 44.4267 139.456 45.0934 138.881 45.68C138.279 46.32 137.495 46.8267 136.528 47.1467C135.456 47.5201 134.175 47.7334 132.684 47.7334C131.691 47.7334 130.724 47.6801 129.756 47.6001C129.077 47.5467 128.318 47.4401 127.456 47.2801C127.063 47.2267 126.854 47.0134 126.854 46.6934V45.4134C126.854 45.0667 127.037 44.9067 127.403 44.9067H127.508C128.188 44.9601 129.05 45.0134 130.122 45.0401C131.037 45.0934 131.9 45.0934 132.711 45.0934C134.488 45.0934 135.77 44.7467 136.528 44.0267C137.181 43.4134 137.495 42.5067 137.495 41.2801C137.495 40 136.24 38.5601 133.704 36.9601L130.645 35.0667C127.743 33.2534 126.305 31.2534 126.305 29.0667C126.305 25.2801 128.815 23.3867 133.835 23.3867C135.9 23.3867 137.73 23.5201 139.325 23.7601C139.691 23.8134 139.874 24.0001 139.874 24.3201V25.7067C139.874 26.0534 139.691 26.2134 139.325 26.2134L136.711 26.0801C135.665 26.0267 134.698 26.0267 133.835 26.0267C130.75 26.0267 129.207 27.0401 129.207 29.0934C129.207 30.2667 130.358 31.5734 132.632 32.9867L135.534 34.7467C138.829 36.7467 140.476 38.9334 140.476 41.3067C140.476 42.1334 140.371 42.9067 140.136 43.6267H140.11Z" fill="white"/>
<path d="M160.136 46.347C160.136 46.9336 159.849 47.2803 159.248 47.387C158.489 47.4936 157.365 47.6003 155.875 47.6803C154.594 47.7336 153.47 47.787 152.528 47.787C149.574 47.787 147.43 47.1203 146.097 45.787C144.659 44.347 143.927 41.9203 143.927 38.4803V24.267C143.927 23.8403 144.11 23.627 144.502 23.627H146.28C146.646 23.627 146.829 23.8403 146.829 24.267V38.4803C146.829 41.147 147.299 42.9603 148.267 43.947C149.077 44.7736 150.541 45.2003 152.607 45.2003C153.208 45.2003 154.071 45.2003 155.169 45.147C156.11 45.0936 156.816 45.067 157.287 45.0136V24.267C157.287 23.8403 157.47 23.627 157.862 23.627H159.587C159.98 23.627 160.163 23.8403 160.163 24.267V46.347H160.136Z" fill="white"/>
<path d="M180.398 47.52H178.202C177.915 47.52 177.679 47.3867 177.523 47.0934L171.875 37.52L167.588 37.4134V46.8534C167.588 47.28 167.405 47.4934 167.012 47.4934H165.313C164.947 47.4934 164.738 47.28 164.738 46.8534V24.3467C164.738 23.9467 164.999 23.7067 165.496 23.6534C166.934 23.4934 168.79 23.3867 171.039 23.3867C173.758 23.3867 175.849 23.8934 177.313 24.9067C179.013 26.0534 179.876 27.8667 179.876 30.3201V30.5334C179.876 32.2667 179.405 33.7067 178.49 34.8534C177.627 35.8934 176.451 36.6401 174.934 37.0401L180.738 46.9067C180.738 46.9067 180.843 47.0934 180.843 47.2001C180.843 47.4134 180.712 47.52 180.425 47.52H180.398ZM177.026 30.3201C177.026 27.4667 175.039 26.0534 171.039 26.0534H169.209C168.45 26.0534 167.901 26.1067 167.561 26.1601V34.96L171.039 35.0134C173.078 35.0134 174.568 34.6934 175.483 34.08C176.503 33.3867 177.026 32.2134 177.026 30.5334V30.3201Z" fill="white"/>
</g>
<defs>
<clipPath id="clip0_337_447">
<rect width="181" height="70" fill="white"/>
</clipPath>
</defs>
</svg>
