<svg width="24" height="24" viewBox="0 0 24 24" fill="none" xmlns="http://www.w3.org/2000/svg">
<path d="M18.5074 6.27729C18.3725 6.20752 18.2411 6.13104 18.1137 6.04813C17.7434 5.80333 17.4039 5.51489 17.1025 5.18901C16.3484 4.32613 16.0667 3.45076 15.963 2.83787H15.9672C15.8805 2.32915 15.9163 2 15.9217 2H12.4869V15.2818C12.4869 15.4602 12.4869 15.6364 12.4794 15.8106C12.4794 15.8322 12.4773 15.8522 12.4761 15.8756C12.4761 15.8851 12.4761 15.8951 12.474 15.9051V15.9126C12.4378 16.3892 12.285 16.8495 12.0292 17.2532C11.7733 17.6568 11.4221 17.9914 11.0066 18.2275C10.5735 18.4739 10.0837 18.6032 9.58539 18.6025C7.98506 18.6025 6.68804 17.2976 6.68804 15.686C6.68804 14.0744 7.98506 12.7695 9.58539 12.7695C9.88833 12.7692 10.1894 12.8169 10.4774 12.9107L10.4816 9.41338C9.60721 9.30043 8.7189 9.36992 7.87272 9.61747C7.02653 9.86502 6.24083 10.2852 5.56518 10.8516C4.97315 11.366 4.47543 11.9798 4.09442 12.6653C3.94942 12.9153 3.40237 13.9198 3.33612 15.5502C3.29446 16.4755 3.57236 17.4342 3.70485 17.8305V17.8388C3.78818 18.0721 4.11108 18.8683 4.63731 19.5395C5.06163 20.078 5.56296 20.5509 6.12515 20.9432V20.9349L6.13348 20.9432C7.79632 22.0732 9.63997 21.999 9.63997 21.999C9.95913 21.9861 11.0282 21.999 12.2423 21.4236C13.5889 20.7857 14.3556 19.8354 14.3556 19.8354C14.8453 19.2675 15.2348 18.6204 15.5072 17.9217C15.818 17.1047 15.9217 16.1247 15.9217 15.7331V8.68675C15.9634 8.71175 16.5184 9.07881 16.5184 9.07881C16.5184 9.07881 17.3179 9.59129 18.5654 9.92502C19.4603 10.1625 20.6661 10.2125 20.6661 10.2125V6.80268C20.2436 6.84851 19.3857 6.71518 18.5074 6.27729Z" stroke="black" stroke-width="1.5" stroke-linejoin="round"/>
</svg>
