<svg width="38" height="39" viewBox="0 0 38 39" fill="none" xmlns="http://www.w3.org/2000/svg">
<g clip-path="url(#clip0_724_867)">
<g clip-path="url(#clip1_724_867)">
<path d="M26.4906 25.1597H11.003C7.31787 25.1597 4.3266 28.1509 4.3266 31.8361V34.6708C4.3266 36.156 5.53198 37.3614 7.01714 37.3614H30.4765C31.9616 37.3614 33.167 36.156 33.167 34.6708V31.8361C33.167 28.1509 30.1757 25.1597 26.4906 25.1597Z" stroke="white" stroke-width="1.84874" stroke-linecap="round" stroke-linejoin="round"/>
<path d="M18.7468 21.8321C13.2332 21.8321 8.76356 17.3625 8.76356 11.8489C8.76356 6.33536 13.2332 1.86572 18.7468 1.86572C24.2603 1.86572 28.73 6.33536 28.73 11.8489C28.73 17.3625 24.2603 21.8321 18.7468 21.8321Z" stroke="white" stroke-width="1.84874" stroke-linecap="round" stroke-linejoin="round"/>
</g>
</g>
<defs>
<clipPath id="clip0_724_867">
<rect width="37.3446" height="37.3446" fill="white" transform="matrix(-1 0 0 1 37.4189 0.940918)"/>
</clipPath>
<clipPath id="clip1_724_867">
<rect width="30.6891" height="37.3446" fill="white" transform="matrix(-1 0 0 1 34.0913 0.940918)"/>
</clipPath>
</defs>
</svg>
