<svg width="99" height="38" viewBox="0 0 99 38" fill="none" xmlns="http://www.w3.org/2000/svg">
<path d="M9.82421 22.1634L1.04391 25.2468C1.81612 27.5196 2.98874 29.5897 4.54745 31.3992L11.5974 25.2613C10.8252 24.3493 10.2246 23.307 9.83851 22.1634H9.82421ZM12.5698 26.2602L6.49227 33.3824C8.27979 34.9459 10.3104 36.1474 12.5412 36.9436L15.6301 28.0697C14.5004 27.6643 13.4708 27.0563 12.5698 26.2746V26.2602ZM20.2633 37.928C20.3348 37.9424 20.4206 37.928 20.4921 37.928H20.2633Z" fill="#FDB515"/>
<path d="M20.2776 28.475V37.9424C19.7771 37.9859 19.2623 38.0003 18.7618 38.0003C17.5749 38.0003 16.4023 37.8845 15.244 37.6674L17.0029 28.4316C18.0754 28.6342 19.1908 28.6632 20.2919 28.475H20.2776Z" fill="#F4B01B"/>
<path d="M26.6126 28.6198H22.2796V37.9279H26.6126V28.6198Z" fill="#FDB515"/>
<path d="M20.2347 0.0582435C18.5902 -0.0720423 16.9314 0.0148149 15.3155 0.333291H15.3012L17.0172 9.58358H17.0315C18.104 9.38091 19.2051 9.36643 20.2776 9.54015L20.2347 0.0727197V0.0582435Z" fill="#EF472C"/>
<path d="M12.6128 1.05713C10.3819 1.83884 8.33701 3.04037 6.53519 4.6038L12.5985 11.7406C13.4994 10.9588 14.529 10.3508 15.6587 9.95999L12.6128 1.05713Z" fill="#EF472C"/>
<path d="M4.56174 6.58704C3.01732 8.39656 1.84471 10.4667 1.0582 12.7105L9.82419 15.8373C10.2246 14.6937 10.8252 13.6514 11.5974 12.7394L4.56174 6.58704Z" fill="#EF472C"/>
<path d="M9.4524 20.7302C9.3523 20.1512 9.2951 19.5721 9.2951 18.9931C9.2951 18.414 9.3523 17.7916 9.4667 17.2125L0.328904 15.4319C0.100101 16.6045 0 17.7916 0 18.9931C0 20.1946 0.114401 21.3527 0.328904 22.5108L0.357504 22.6121L4.89065 21.6567H4.91925L9.4953 20.8026V20.7302H9.4524Z" fill="#EF472C"/>
<path d="M30.8311 32.8468C30.5308 32.8468 30.2591 32.7745 30.0446 32.6442C29.8301 32.5139 29.6585 32.3257 29.5441 32.0796C29.4297 31.8335 29.3725 31.5585 29.3725 31.24C29.3725 30.9215 29.4297 30.6465 29.5441 30.4004C29.6585 30.1543 29.8301 29.9661 30.0446 29.8358C30.2591 29.7055 30.5022 29.6331 30.7882 29.6331C30.9741 29.6331 31.1457 29.6621 31.3173 29.72C31.4889 29.7779 31.632 29.8792 31.7607 30.0095C31.8894 30.1398 31.9895 30.299 32.061 30.5017C32.1325 30.7044 32.1754 30.936 32.1754 31.211V31.4137H29.7014V30.9505H31.8608L31.5891 31.0952C31.5891 30.907 31.5605 30.7333 31.5033 30.5885C31.4461 30.4438 31.3602 30.328 31.2315 30.2556C31.1171 30.1687 30.9741 30.1398 30.8025 30.1398C30.6309 30.1398 30.4879 30.1832 30.3592 30.2701C30.2305 30.3569 30.1447 30.4583 30.0732 30.603C30.0017 30.7333 29.9731 30.8925 29.9731 31.0663V31.3703C29.9731 31.5729 30.016 31.7611 30.0875 31.9059C30.159 32.0506 30.2591 32.1665 30.3878 32.2388C30.5165 32.3112 30.6738 32.3546 30.8454 32.3546C30.9598 32.3546 31.0742 32.3402 31.16 32.2967C31.2601 32.2678 31.3316 32.2099 31.4031 32.1375C31.4746 32.0651 31.5175 31.9927 31.5462 31.8914L32.1182 31.9927C32.0753 32.1665 31.9895 32.3112 31.8751 32.4415C31.7607 32.5718 31.6034 32.6731 31.4317 32.7455C31.2601 32.8179 31.0599 32.8468 30.8311 32.8468Z" fill="#001E83"/>
<path d="M33.3051 30.9505V32.7745H32.6902V29.6621H33.2765V30.4293H33.205C33.2908 30.1543 33.4338 29.9516 33.6054 29.8213C33.777 29.691 33.9915 29.6331 34.2346 29.6331C34.4491 29.6331 34.635 29.6765 34.7923 29.7634C34.9496 29.8503 35.0783 29.9805 35.1641 30.1687C35.2499 30.3569 35.2928 30.5596 35.2928 30.8202V32.7889H34.6922V30.8925C34.6922 30.6609 34.635 30.4872 34.5206 30.3569C34.4062 30.2266 34.2489 30.1687 34.0487 30.1687C33.9057 30.1687 33.7913 30.1977 33.6769 30.2556C33.5625 30.3135 33.4767 30.4004 33.4195 30.5162C33.3623 30.632 33.3194 30.7767 33.3194 30.9505H33.3051Z" fill="#001E83"/>
<path d="M37.2805 32.8468C36.9802 32.8468 36.7085 32.7745 36.494 32.6442C36.2795 32.5139 36.1079 32.3257 35.9935 32.0796C35.8791 31.8335 35.8219 31.5585 35.8219 31.24C35.8219 30.9215 35.8791 30.6465 35.9935 30.4004C36.1079 30.1543 36.2795 29.9661 36.494 29.8358C36.7085 29.7055 36.9516 29.6331 37.2376 29.6331C37.4235 29.6331 37.5951 29.6621 37.7667 29.72C37.9383 29.7779 38.0813 29.8792 38.21 30.0095C38.3387 30.1398 38.4388 30.299 38.5103 30.5017C38.5818 30.7044 38.6247 30.936 38.6247 31.211V31.4137H36.1508V30.9505H38.3101L38.0384 31.0952C38.0384 30.907 38.0098 30.7333 37.9526 30.5885C37.8954 30.4438 37.8096 30.328 37.6809 30.2556C37.5665 30.1687 37.4235 30.1398 37.2519 30.1398C37.0803 30.1398 36.9373 30.1832 36.8086 30.2701C36.6799 30.3569 36.5941 30.4583 36.5226 30.603C36.4511 30.7333 36.4225 30.8925 36.4225 31.0663V31.3703C36.4225 31.5729 36.4654 31.7611 36.5369 31.9059C36.6084 32.0506 36.7085 32.1665 36.8372 32.2388C36.9659 32.3112 37.1232 32.3546 37.2948 32.3546C37.4092 32.3546 37.5236 32.3402 37.6094 32.2967C37.7095 32.2678 37.781 32.2099 37.8525 32.1375C37.924 32.0651 37.9669 31.9927 37.9955 31.8914L38.5675 31.9927C38.5246 32.1665 38.4388 32.3112 38.3244 32.4415C38.21 32.5718 38.0527 32.6731 37.8811 32.7455C37.7095 32.8179 37.5093 32.8468 37.2805 32.8468Z" fill="#001E83"/>
<path d="M39.1395 32.7889V29.6765H39.7259V30.1687H39.7544C39.8116 29.995 39.9118 29.8647 40.0405 29.7779C40.1692 29.6765 40.3408 29.6331 40.5124 29.6331C40.5553 29.6331 40.5982 29.6331 40.6411 29.6331C40.684 29.6331 40.7269 29.6331 40.7555 29.6331V30.2122C40.7555 30.2122 40.684 30.2122 40.6268 30.1977C40.5696 30.1977 40.4981 30.1977 40.4409 30.1977C40.3122 30.1977 40.1835 30.2266 40.0834 30.2845C39.9833 30.3425 39.8975 30.4293 39.826 30.5306C39.7688 30.632 39.7402 30.7623 39.7402 30.907V32.7889H39.1252H39.1395Z" fill="#001E83"/>
<path d="M42.3714 34.0194C42.1283 34.0194 41.9138 33.9904 41.7422 33.918C41.5706 33.8601 41.4133 33.7733 41.2989 33.6575C41.1845 33.5417 41.0987 33.4259 41.0557 33.2811L41.5849 33.0929C41.5849 33.0929 41.6707 33.2232 41.7279 33.2956C41.7851 33.368 41.8709 33.4114 41.971 33.4693C42.0711 33.5272 42.1998 33.5417 42.3571 33.5417C42.6002 33.5417 42.7861 33.4838 42.9291 33.368C43.0721 33.2521 43.1436 33.0784 43.1436 32.8323V32.2533H43.1007C43.0578 32.3257 43.0006 32.4125 42.9291 32.4849C42.8576 32.5573 42.7575 32.6297 42.6431 32.6876C42.5287 32.7455 42.3857 32.7744 42.1998 32.7744C41.9567 32.7744 41.7279 32.7165 41.542 32.6007C41.3561 32.4849 41.1988 32.3112 41.0844 32.0796C40.9699 31.848 40.9128 31.5729 40.9128 31.24C40.9128 30.907 40.9699 30.632 41.0844 30.4003C41.1988 30.1687 41.3561 29.9805 41.542 29.8502C41.7279 29.72 41.9567 29.662 42.2141 29.662C42.3857 29.662 42.543 29.691 42.6574 29.7489C42.7718 29.8068 42.8719 29.8792 42.9434 29.966C43.0149 30.0529 43.0721 30.1253 43.115 30.2121H43.1436V29.72H43.7299V32.8613C43.7299 33.1363 43.6727 33.368 43.544 33.5417C43.4153 33.7154 43.258 33.8457 43.0435 33.9325C42.829 34.0194 42.6002 34.0628 42.3428 34.0628L42.3714 34.0194ZM42.3714 32.2388C42.543 32.2388 42.686 32.1954 42.8147 32.1085C42.9291 32.0217 43.0292 31.9059 43.0864 31.7466C43.1436 31.5874 43.1865 31.4137 43.1865 31.1965C43.1865 30.9794 43.1579 30.8057 43.0864 30.6464C43.0292 30.4872 42.9291 30.3714 42.8147 30.27C42.7003 30.1832 42.543 30.1398 42.3714 30.1398C42.1998 30.1398 42.0425 30.1832 41.9281 30.27C41.8137 30.3569 41.7136 30.4872 41.6564 30.6464C41.5992 30.8057 41.5563 30.9794 41.5563 31.1965C41.5563 31.4137 41.5849 31.5874 41.6564 31.7466C41.7279 31.9059 41.8137 32.0217 41.9281 32.1085C42.0425 32.1954 42.1998 32.2388 42.3714 32.2388Z" fill="#001E83"/>
<path d="M44.4449 32.7889V29.6765H45.0598V32.7889H44.4449ZM44.5021 29.2857L44.9025 28.446H45.5317L44.974 29.2857H44.5164H44.5021Z" fill="#001E83"/>
<path d="M46.6042 32.8468C46.404 32.8468 46.2324 32.8034 46.0751 32.731C45.9178 32.6586 45.7891 32.5573 45.7033 32.4125C45.6175 32.2677 45.5603 32.094 45.5603 31.8914C45.5603 31.7176 45.5889 31.5729 45.6604 31.4571C45.7319 31.3413 45.8177 31.2544 45.9321 31.182C46.0465 31.1096 46.1752 31.0662 46.3182 31.0373C46.4612 31.0083 46.6042 30.9794 46.7472 30.9649C46.9331 30.9359 47.0761 30.9215 47.1905 30.907C47.3049 30.8925 47.3907 30.8635 47.4336 30.8346C47.4908 30.8056 47.5194 30.7477 47.5194 30.6754C47.5194 30.5451 47.4908 30.4437 47.4479 30.3714C47.405 30.2845 47.3335 30.2266 47.2477 30.1832C47.1619 30.1397 47.0475 30.1253 46.9188 30.1253C46.7901 30.1253 46.6757 30.1397 46.5756 30.1832C46.4755 30.2266 46.404 30.2845 46.3468 30.3424C46.2896 30.4003 46.2467 30.4727 46.2181 30.5595L45.6461 30.4437C45.7033 30.2555 45.7891 30.0963 45.9178 29.9805C46.0465 29.8647 46.1895 29.7634 46.3611 29.7055C46.5327 29.6475 46.7186 29.6186 46.9188 29.6186C47.0618 29.6186 47.1905 29.6331 47.3335 29.6765C47.4765 29.7054 47.6052 29.7634 47.7196 29.8502C47.834 29.9371 47.9341 30.0384 48.0056 30.1832C48.0771 30.3279 48.12 30.5016 48.12 30.7043V32.7744H47.5337V32.3401H47.5051C47.4622 32.427 47.405 32.4994 47.3335 32.5717C47.262 32.6441 47.1619 32.702 47.0332 32.7599C46.9188 32.8034 46.7615 32.8323 46.6042 32.8323V32.8468ZM46.7329 32.3546C46.9045 32.3546 47.0475 32.3256 47.1619 32.2533C47.2763 32.1809 47.3621 32.094 47.4336 31.9927C47.4908 31.8914 47.5194 31.7755 47.5194 31.6453V31.2544C47.5194 31.2544 47.4622 31.2978 47.405 31.3123C47.3478 31.3268 47.2763 31.3413 47.2048 31.3557C47.1333 31.3702 47.0475 31.3847 46.976 31.3992C46.9045 31.3992 46.833 31.4136 46.7758 31.4281C46.6614 31.4426 46.5613 31.4715 46.4612 31.5005C46.3611 31.5295 46.2896 31.5874 46.2324 31.6453C46.1752 31.7032 46.1466 31.79 46.1466 31.9058C46.1466 32.0072 46.1752 32.0795 46.2181 32.1519C46.261 32.2243 46.3325 32.2677 46.4183 32.2967C46.5041 32.3256 46.6042 32.3401 46.7186 32.3401L46.7329 32.3546Z" fill="#001E83"/>
<path d="M51.2947 32.8613C51.0659 32.8613 50.8657 32.8324 50.6941 32.76C50.5225 32.6876 50.3795 32.5863 50.2651 32.456C50.1507 32.3257 50.0792 32.1665 50.0506 31.9783L50.6226 31.8769C50.6655 32.0362 50.737 32.1665 50.8514 32.2388C50.9658 32.3112 51.1088 32.3546 51.2947 32.3546C51.4949 32.3546 51.6379 32.3112 51.7666 32.2388C51.881 32.152 51.9382 32.0651 51.9382 31.9348C51.9382 31.8335 51.8953 31.7466 51.8238 31.6887C51.7523 31.6308 51.6379 31.5729 51.4949 31.544L50.9801 31.4282C50.6941 31.3703 50.4796 31.2545 50.3366 31.1097C50.1936 30.9649 50.1221 30.7767 50.1221 30.5596C50.1221 30.3714 50.1793 30.2122 50.2794 30.0674C50.3795 29.9226 50.5225 29.8213 50.6941 29.7489C50.8657 29.6765 51.0802 29.6331 51.309 29.6331C51.5378 29.6331 51.7237 29.6621 51.8953 29.7345C52.0526 29.8068 52.1956 29.8937 52.2814 30.024C52.3815 30.1398 52.453 30.299 52.4816 30.4583L51.9239 30.5596C51.8953 30.4438 51.8238 30.3425 51.738 30.2556C51.6379 30.1687 51.4949 30.1253 51.3233 30.1253C51.1517 30.1253 51.0087 30.1687 50.9086 30.2411C50.8085 30.3135 50.737 30.4148 50.737 30.5306C50.737 30.632 50.7799 30.7188 50.8514 30.7767C50.9229 30.8346 51.0516 30.8925 51.2089 30.936L51.7094 31.0518C51.9954 31.1242 52.2099 31.2255 52.3529 31.3558C52.4959 31.5005 52.5531 31.6743 52.5531 31.8914C52.5531 32.0796 52.4959 32.2533 52.3958 32.3981C52.2957 32.5428 52.1384 32.6586 51.9525 32.7455C51.7666 32.8324 51.5521 32.8613 51.2947 32.8613Z" fill="#001E83"/>
<path d="M54.3692 32.8468C54.0832 32.8468 53.8258 32.7745 53.6113 32.6442C53.3968 32.5139 53.2252 32.3257 53.1108 32.0796C52.9964 31.8335 52.9249 31.5585 52.9249 31.24C52.9249 30.9215 52.9821 30.632 53.1108 30.4004C53.2252 30.1543 53.3968 29.9661 53.6113 29.8358C53.8258 29.7055 54.0832 29.6331 54.3692 29.6331C54.6552 29.6331 54.9126 29.7055 55.1271 29.8358C55.3416 29.9661 55.5132 30.1543 55.6276 30.4004C55.742 30.6465 55.7992 30.9215 55.7992 31.24C55.7992 31.5585 55.742 31.8335 55.6276 32.0796C55.5132 32.3257 55.3416 32.5139 55.1271 32.6442C54.9126 32.7745 54.6552 32.8468 54.3692 32.8468ZM54.3692 32.3257C54.5551 32.3257 54.7124 32.2823 54.8268 32.1809C54.9412 32.0796 55.0413 31.9493 55.0985 31.7901C55.1557 31.6308 55.1843 31.4426 55.1843 31.24C55.1843 31.0373 55.1557 30.8491 55.0985 30.6899C55.0413 30.5306 54.9412 30.4004 54.8268 30.299C54.7124 30.1977 54.5551 30.1543 54.3692 30.1543C54.1833 30.1543 54.026 30.1977 53.9116 30.299C53.7972 30.4004 53.6971 30.5306 53.6399 30.6899C53.5827 30.8491 53.5541 31.0373 53.5541 31.24C53.5541 31.4426 53.5827 31.6164 53.6399 31.7901C53.6971 31.9638 53.7972 32.0796 53.9116 32.1809C54.026 32.2823 54.1833 32.3257 54.3692 32.3257Z" fill="#001E83"/>
<path d="M56.9575 28.5908V32.7889H56.3426V28.5908H56.9575Z" fill="#001E83"/>
<path d="M58.5162 32.8468C58.316 32.8468 58.1444 32.8034 57.9871 32.731C57.8298 32.6586 57.7011 32.5573 57.6153 32.4125C57.5295 32.2677 57.4723 32.094 57.4723 31.8914C57.4723 31.7176 57.5009 31.5729 57.5724 31.4571C57.6439 31.3413 57.7297 31.2544 57.8441 31.182C57.9585 31.1096 58.0872 31.0662 58.2302 31.0373C58.3732 31.0083 58.5162 30.9794 58.6593 30.9649C58.8452 30.9359 58.9882 30.9215 59.1026 30.907C59.217 30.8925 59.3028 30.8635 59.3457 30.8346C59.4029 30.8056 59.4315 30.7477 59.4315 30.6754C59.4315 30.5451 59.4029 30.4437 59.36 30.3714C59.3171 30.2845 59.2456 30.2266 59.1598 30.1832C59.074 30.1397 58.9596 30.1253 58.8309 30.1253C58.7022 30.1253 58.5878 30.1397 58.4877 30.1832C58.3876 30.2266 58.316 30.2845 58.2588 30.3424C58.2016 30.4003 58.1587 30.4727 58.1301 30.5595L57.5581 30.4437C57.6153 30.2555 57.7011 30.0963 57.8298 29.9805C57.9585 29.8647 58.1015 29.7634 58.2731 29.7055C58.4447 29.6475 58.6306 29.6186 58.8309 29.6186C58.9739 29.6186 59.1026 29.6331 59.2456 29.6765C59.3886 29.7054 59.5173 29.7634 59.6317 29.8502C59.7461 29.9371 59.8462 30.0384 59.9177 30.1832C59.9892 30.3279 60.0321 30.5016 60.0321 30.7043V32.7744H59.4458V32.3401H59.4172C59.3743 32.427 59.3171 32.4994 59.2456 32.5717C59.1741 32.6441 59.074 32.702 58.9453 32.7599C58.8309 32.8034 58.6735 32.8323 58.5162 32.8323V32.8468ZM58.6449 32.3546C58.8166 32.3546 58.9596 32.3256 59.074 32.2533C59.1884 32.1809 59.2742 32.094 59.3457 31.9927C59.4029 31.8914 59.4315 31.7755 59.4315 31.6453V31.2544C59.4315 31.2544 59.3743 31.2978 59.3171 31.3123C59.2599 31.3268 59.1884 31.3413 59.1169 31.3557C59.0454 31.3702 58.9596 31.3847 58.8881 31.3992C58.8166 31.3992 58.7451 31.4136 58.6879 31.4281C58.5735 31.4426 58.4733 31.4715 58.3732 31.5005C58.2731 31.5295 58.2016 31.5874 58.1444 31.6453C58.0872 31.7032 58.0586 31.79 58.0586 31.9058C58.0586 32.0072 58.0872 32.0795 58.1301 32.1519C58.173 32.2243 58.2445 32.2677 58.3303 32.2967C58.4161 32.3256 58.5162 32.3401 58.6307 32.3401L58.6449 32.3546Z" fill="#001E83"/>
<path d="M60.7042 32.7889V29.6765H61.2905V30.1687H61.3191C61.3763 29.995 61.4764 29.8647 61.6051 29.7779C61.7338 29.6765 61.9054 29.6331 62.077 29.6331C62.1199 29.6331 62.1628 29.6331 62.2057 29.6331C62.2486 29.6331 62.2915 29.6331 62.3201 29.6331V30.2122C62.3201 30.2122 62.2486 30.2122 62.1914 30.1977C62.1342 30.1977 62.0627 30.1977 62.0055 30.1977C61.8768 30.1977 61.7481 30.2266 61.648 30.2845C61.5479 30.3425 61.4621 30.4293 61.3906 30.5306C61.3334 30.632 61.3048 30.7623 61.3048 30.907V32.7889H60.6899H60.7042Z" fill="#001E83"/>
<path d="M64.1219 33.9615V29.6765H64.7082V30.1687H64.7511C64.794 30.0964 64.8512 30.0095 64.9227 29.9371C64.9942 29.8647 65.0943 29.7779 65.2087 29.72C65.3231 29.6621 65.4804 29.6331 65.652 29.6331C65.9094 29.6331 66.1239 29.691 66.3241 29.8213C66.51 29.9516 66.6673 30.1398 66.7817 30.3714C66.8961 30.6175 66.9533 30.8925 66.9533 31.2255C66.9533 31.5585 66.8961 31.848 66.7817 32.0796C66.6673 32.3112 66.5243 32.4994 66.3241 32.6297C66.1239 32.76 65.9094 32.8324 65.652 32.8324C65.4804 32.8324 65.3374 32.8034 65.2087 32.7455C65.0943 32.6876 64.9942 32.6152 64.9227 32.5284C64.8512 32.4415 64.794 32.3691 64.7511 32.2823H64.7225V33.9325H64.1076L64.1219 33.9615ZM65.5233 32.3257C65.6949 32.3257 65.8379 32.2823 65.9666 32.1809C66.0953 32.0796 66.1811 31.9638 66.2383 31.7901C66.2955 31.6164 66.3384 31.4426 66.3384 31.2255C66.3384 31.0084 66.3098 30.8202 66.2383 30.6609C66.1811 30.5017 66.081 30.3714 65.9666 30.2845C65.8522 30.1977 65.6949 30.1398 65.5233 30.1398C65.3517 30.1398 65.2087 30.1832 65.08 30.2701C64.9656 30.3569 64.8655 30.4872 64.8083 30.6465C64.7511 30.8057 64.7082 30.9939 64.7082 31.211C64.7082 31.4282 64.7368 31.6164 64.8083 31.7756C64.8655 31.9348 64.9656 32.0651 65.08 32.152C65.1944 32.2388 65.3517 32.2823 65.5233 32.2823V32.3257Z" fill="#001E83"/>
<path d="M68.3977 32.8468C68.1975 32.8468 68.0259 32.8034 67.8686 32.731C67.7112 32.6586 67.5826 32.5573 67.4967 32.4125C67.4109 32.2677 67.3537 32.094 67.3537 31.8914C67.3537 31.7176 67.3823 31.5729 67.4538 31.4571C67.5253 31.3413 67.6112 31.2544 67.7256 31.182C67.84 31.1096 67.9687 31.0662 68.1117 31.0373C68.2547 31.0083 68.3977 30.9794 68.5407 30.9649C68.7266 30.9359 68.8696 30.9215 68.984 30.907C69.0984 30.8925 69.1842 30.8635 69.2271 30.8346C69.2843 30.8056 69.3129 30.7477 69.3129 30.6754C69.3129 30.5451 69.2843 30.4437 69.2414 30.3714C69.1985 30.2845 69.127 30.2266 69.0412 30.1832C68.9554 30.1397 68.841 30.1253 68.7123 30.1253C68.5836 30.1253 68.4692 30.1397 68.3691 30.1832C68.269 30.2266 68.1975 30.2845 68.1403 30.3424C68.0831 30.4003 68.0402 30.4727 68.0116 30.5595L67.4395 30.4437C67.4967 30.2555 67.5825 30.0963 67.7112 29.9805C67.8399 29.8647 67.983 29.7634 68.1546 29.7055C68.3262 29.6475 68.5121 29.6186 68.7123 29.6186C68.8553 29.6186 68.984 29.6331 69.127 29.6765C69.27 29.7054 69.3987 29.7634 69.5131 29.8502C69.6275 29.9371 69.7276 30.0384 69.7991 30.1832C69.8706 30.3279 69.9135 30.5016 69.9135 30.7043V32.7744H69.3272V32.3401H69.2986C69.2557 32.427 69.1985 32.4994 69.127 32.5717C69.0555 32.6441 68.9554 32.702 68.8267 32.7599C68.7123 32.8034 68.555 32.8323 68.3977 32.8323V32.8468ZM68.5264 32.3546C68.698 32.3546 68.841 32.3256 68.9554 32.2533C69.0698 32.1809 69.1556 32.094 69.2271 31.9927C69.2843 31.8914 69.3129 31.7755 69.3129 31.6453V31.2544C69.3129 31.2544 69.2557 31.2978 69.1985 31.3123C69.1413 31.3268 69.0698 31.3413 68.9983 31.3557C68.9268 31.3702 68.841 31.3847 68.7695 31.3992C68.698 31.3992 68.6265 31.4136 68.5693 31.4281C68.4549 31.4426 68.3548 31.4715 68.2547 31.5005C68.1546 31.5295 68.0831 31.5874 68.0259 31.6453C67.9687 31.7032 67.9401 31.79 67.9401 31.9058C67.9401 32.0072 67.9687 32.0795 68.0116 32.1519C68.0545 32.2243 68.126 32.2677 68.2118 32.2967C68.2976 32.3256 68.3977 32.3401 68.5121 32.3401L68.5264 32.3546Z" fill="#001E83"/>
<path d="M70.5999 32.7889V29.6765H71.1862V30.1687H71.2148C71.272 29.995 71.3721 29.8647 71.5008 29.7779C71.6295 29.6765 71.8011 29.6331 71.9727 29.6331C72.0156 29.6331 72.0585 29.6331 72.1014 29.6331C72.1443 29.6331 72.1872 29.6331 72.2158 29.6331V30.2122C72.2158 30.2122 72.1443 30.2122 72.0871 30.1977C72.0299 30.1977 71.9584 30.1977 71.9012 30.1977C71.7725 30.1977 71.6438 30.2266 71.5437 30.2845C71.4436 30.3425 71.3578 30.4293 71.2863 30.5306C71.2291 30.632 71.2005 30.7623 71.2005 30.907V32.7889H70.5856H70.5999Z" fill="#001E83"/>
<path d="M73.4742 32.8468C73.274 32.8468 73.1024 32.8034 72.9451 32.731C72.7878 32.6586 72.6591 32.5573 72.5733 32.4125C72.4875 32.2677 72.4303 32.094 72.4303 31.8914C72.4303 31.7176 72.4589 31.5729 72.5304 31.4571C72.6019 31.3413 72.6877 31.2544 72.8021 31.182C72.9165 31.1096 73.0452 31.0662 73.1882 31.0373C73.3312 31.0083 73.4742 30.9794 73.6172 30.9649C73.8031 30.9359 73.9461 30.9215 74.0605 30.907C74.1749 30.8925 74.2607 30.8635 74.3036 30.8346C74.3608 30.8056 74.3894 30.7477 74.3894 30.6754C74.3894 30.5451 74.3608 30.4437 74.3179 30.3714C74.275 30.2845 74.2035 30.2266 74.1177 30.1832C74.0319 30.1397 73.9175 30.1253 73.7888 30.1253C73.6601 30.1253 73.5457 30.1397 73.4456 30.1832C73.3455 30.2266 73.274 30.2845 73.2168 30.3424C73.1596 30.4003 73.1167 30.4727 73.0881 30.5595L72.5161 30.4437C72.5733 30.2555 72.6591 30.0963 72.7878 29.9805C72.9165 29.8647 73.0595 29.7634 73.2311 29.7055C73.4027 29.6475 73.5886 29.6186 73.7888 29.6186C73.9318 29.6186 74.0605 29.6331 74.2035 29.6765C74.3465 29.7054 74.4752 29.7634 74.5896 29.8502C74.704 29.9371 74.8041 30.0384 74.8756 30.1832C74.9471 30.3279 74.99 30.5016 74.99 30.7043V32.7744H74.4037V32.3401H74.3751C74.3322 32.427 74.275 32.4994 74.2035 32.5717C74.132 32.6441 74.0319 32.702 73.9032 32.7599C73.7888 32.8034 73.6315 32.8323 73.4742 32.8323V32.8468ZM73.6029 32.3546C73.7745 32.3546 73.9175 32.3256 74.0319 32.2533C74.1463 32.1809 74.2321 32.094 74.3036 31.9927C74.3608 31.8914 74.3894 31.7755 74.3894 31.6453V31.2544C74.3894 31.2544 74.3322 31.2978 74.275 31.3123C74.2178 31.3268 74.1463 31.3413 74.0748 31.3557C74.0033 31.3702 73.9175 31.3847 73.846 31.3992C73.7745 31.3992 73.703 31.4136 73.6458 31.4281C73.5314 31.4426 73.4313 31.4715 73.3312 31.5005C73.2311 31.5295 73.1596 31.5874 73.1024 31.6453C73.0452 31.7032 73.0166 31.79 73.0166 31.9058C73.0166 32.0072 73.0452 32.0795 73.0881 32.1519C73.131 32.2243 73.2025 32.2677 73.2883 32.2967C73.3741 32.3256 73.4742 32.3401 73.5886 32.3401L73.6029 32.3546Z" fill="#001E83"/>
<path d="M78.3935 29.6765V30.1832H76.7061V29.6765H78.3935ZM77.1637 28.9093H77.7786V31.9493C77.7786 32.0651 77.8072 32.1664 77.8501 32.2099C77.893 32.2533 77.9788 32.2967 78.1075 32.2967C78.1504 32.2967 78.1933 32.2967 78.2362 32.2967C78.2934 32.2967 78.3363 32.2967 78.3649 32.2823L78.4507 32.7744C78.4507 32.7744 78.322 32.8034 78.2505 32.8179C78.179 32.8324 78.1075 32.8179 78.036 32.8179C77.75 32.8179 77.5355 32.7455 77.3925 32.6152C77.2352 32.4704 77.1637 32.2678 77.1637 32.0072V28.9238V28.9093Z" fill="#001E83"/>
<path d="M80.1095 32.8468C79.8235 32.8468 79.5661 32.7745 79.3516 32.6442C79.1371 32.5139 78.9655 32.3257 78.8511 32.0796C78.7367 31.8335 78.6652 31.5585 78.6652 31.24C78.6652 30.9215 78.7224 30.632 78.8511 30.4004C78.9655 30.1543 79.1371 29.9661 79.3516 29.8358C79.5661 29.7055 79.8235 29.6331 80.1095 29.6331C80.3955 29.6331 80.6529 29.7055 80.8674 29.8358C81.0819 29.9661 81.2535 30.1543 81.3679 30.4004C81.4823 30.6465 81.5395 30.9215 81.5395 31.24C81.5395 31.5585 81.4823 31.8335 81.3679 32.0796C81.2535 32.3257 81.0819 32.5139 80.8674 32.6442C80.6529 32.7745 80.3955 32.8468 80.1095 32.8468ZM80.1095 32.3257C80.2954 32.3257 80.4527 32.2823 80.5671 32.1809C80.6815 32.0796 80.7816 31.9493 80.8388 31.7901C80.896 31.6308 80.9246 31.4426 80.9246 31.24C80.9246 31.0373 80.896 30.8491 80.8388 30.6899C80.7816 30.5306 80.6815 30.4004 80.5671 30.299C80.4527 30.1977 80.2954 30.1543 80.1095 30.1543C79.9236 30.1543 79.7663 30.1977 79.6519 30.299C79.5375 30.4004 79.4374 30.5306 79.3802 30.6899C79.323 30.8491 79.2944 31.0373 79.2944 31.24C79.2944 31.4426 79.323 31.6164 79.3802 31.7901C79.4374 31.9638 79.5375 32.0796 79.6519 32.1809C79.7663 32.2823 79.9236 32.3257 80.1095 32.3257Z" fill="#001E83"/>
<path d="M83.2412 32.8468C82.9838 32.8468 82.7693 32.7889 82.5691 32.6441C82.3689 32.5139 82.2259 32.3257 82.1115 32.094C81.9971 31.8624 81.9399 31.5729 81.9399 31.24C81.9399 30.907 81.9971 30.6175 82.1115 30.3859C82.2259 30.1398 82.3689 29.966 82.5691 29.8358C82.7693 29.7055 82.9838 29.6476 83.2412 29.6476C83.4128 29.6476 83.5701 29.6765 83.6845 29.7344C83.7989 29.7923 83.899 29.8647 83.9705 29.9516C84.042 30.0384 84.0992 30.1108 84.1421 30.1832H84.1707V28.6053H84.7713V32.8034H84.185V32.3257H84.1421C84.0992 32.398 84.042 32.4849 83.9705 32.5718C83.899 32.6586 83.7989 32.731 83.6845 32.7889C83.5701 32.8468 83.4271 32.8758 83.2412 32.8758V32.8468ZM83.3699 32.3257C83.5415 32.3257 83.6845 32.2822 83.8132 32.1954C83.9276 32.1085 84.0277 31.9782 84.0849 31.819C84.1421 31.6598 84.185 31.4716 84.185 31.2544C84.185 31.0373 84.1564 30.8491 84.0849 30.6899C84.0277 30.5306 83.9276 30.4003 83.8132 30.3135C83.6988 30.2266 83.5415 30.1832 83.3699 30.1832C83.1983 30.1832 83.0553 30.2266 82.9266 30.328C82.7979 30.4293 82.7121 30.5451 82.6549 30.7043C82.5977 30.8636 82.5548 31.0518 82.5548 31.2689C82.5548 31.486 82.5834 31.6598 82.6549 31.8335C82.7121 31.9927 82.8122 32.123 82.9266 32.2243C83.041 32.3257 83.1983 32.3691 83.3699 32.3691V32.3257Z" fill="#001E83"/>
<path d="M86.7448 32.8468C86.4588 32.8468 86.2014 32.7745 85.9869 32.6442C85.7724 32.5139 85.6007 32.3257 85.4863 32.0796C85.3719 31.8335 85.3004 31.5585 85.3004 31.24C85.3004 30.9215 85.3576 30.632 85.4863 30.4004C85.6007 30.1543 85.7724 29.9661 85.9869 29.8358C86.2014 29.7055 86.4588 29.6331 86.7448 29.6331C87.0308 29.6331 87.2882 29.7055 87.5027 29.8358C87.7172 29.9661 87.8888 30.1543 88.0032 30.4004C88.1176 30.6465 88.1748 30.9215 88.1748 31.24C88.1748 31.5585 88.1176 31.8335 88.0032 32.0796C87.8888 32.3257 87.7172 32.5139 87.5027 32.6442C87.2882 32.7745 87.0308 32.8468 86.7448 32.8468ZM86.7448 32.3257C86.9307 32.3257 87.088 32.2823 87.2024 32.1809C87.3168 32.0796 87.4169 31.9493 87.4741 31.7901C87.5313 31.6308 87.5599 31.4426 87.5599 31.24C87.5599 31.0373 87.5313 30.8491 87.4741 30.6899C87.4169 30.5306 87.3168 30.4004 87.2024 30.299C87.088 30.1977 86.9307 30.1543 86.7448 30.1543C86.5589 30.1543 86.4016 30.1977 86.2872 30.299C86.1728 30.4004 86.0727 30.5306 86.0155 30.6899C85.9583 30.8491 85.9297 31.0373 85.9297 31.24C85.9297 31.4426 85.9583 31.6164 86.0155 31.7901C86.0727 31.9638 86.1728 32.0796 86.2872 32.1809C86.4016 32.2823 86.5589 32.3257 86.7448 32.3257Z" fill="#001E83"/>
<path d="M91.1492 32.8323C90.9347 32.8323 90.7488 32.7889 90.5915 32.702C90.4342 32.6152 90.3055 32.4849 90.2197 32.3112C90.1339 32.1375 90.091 31.9203 90.091 31.6597V29.691H90.7059V31.5729C90.7059 31.8045 90.7631 31.9782 90.8775 32.1085C90.9919 32.2388 91.1492 32.2967 91.3637 32.2967C91.5067 32.2967 91.6211 32.2677 91.7355 32.2098C91.8499 32.1519 91.9214 32.0651 91.9929 31.9493C92.0644 31.8335 92.093 31.6887 92.093 31.515V29.691H92.7079V32.8034H92.1216V32.0361H92.1931C92.1073 32.3112 91.9643 32.5138 91.7927 32.6441C91.6211 32.7744 91.4209 32.8323 91.1778 32.8323H91.1492Z" fill="#001E83"/>
<path d="M94.4668 32.8613C94.238 32.8613 94.0378 32.8324 93.8662 32.76C93.6946 32.6876 93.5516 32.5863 93.4372 32.456C93.3228 32.3257 93.2513 32.1665 93.2227 31.9783L93.7947 31.8769C93.8376 32.0362 93.9091 32.1665 94.0235 32.2388C94.1379 32.3112 94.2809 32.3546 94.4668 32.3546C94.667 32.3546 94.81 32.3112 94.9387 32.2388C95.0531 32.152 95.1104 32.0651 95.1104 31.9348C95.1104 31.8335 95.0674 31.7466 94.9959 31.6887C94.9244 31.6308 94.81 31.5729 94.667 31.544L94.1522 31.4282C93.8662 31.3703 93.6517 31.2545 93.5087 31.1097C93.3657 30.9649 93.2942 30.7767 93.2942 30.5596C93.2942 30.3714 93.3514 30.2122 93.4515 30.0674C93.5516 29.9226 93.6946 29.8213 93.8662 29.7489C94.0378 29.6765 94.2523 29.6331 94.4811 29.6331C94.7099 29.6331 94.8959 29.6621 95.0675 29.7345C95.2248 29.8068 95.3678 29.8937 95.4536 30.024C95.5537 30.1398 95.6252 30.299 95.6538 30.4583L95.096 30.5596C95.0674 30.4438 94.996 30.3425 94.9102 30.2556C94.8101 30.1687 94.667 30.1253 94.4954 30.1253C94.3238 30.1253 94.1808 30.1687 94.0807 30.2411C93.9806 30.3135 93.9091 30.4148 93.9091 30.5306C93.9091 30.632 93.952 30.7188 94.0235 30.7767C94.095 30.8346 94.2237 30.8925 94.381 30.936L94.8815 31.0518C95.1675 31.1242 95.3821 31.2255 95.5251 31.3558C95.6681 31.5005 95.7253 31.6743 95.7253 31.8914C95.7253 32.0796 95.6681 32.2533 95.568 32.3981C95.4679 32.5428 95.3105 32.6586 95.1246 32.7455C94.9387 32.8324 94.7242 32.8613 94.4668 32.8613Z" fill="#001E83"/>
<path d="M97.5557 32.8468C97.2697 32.8468 97.0123 32.7745 96.7978 32.6442C96.5833 32.5139 96.4117 32.3257 96.2973 32.0796C96.1829 31.8335 96.1114 31.5585 96.1114 31.24C96.1114 30.9215 96.1686 30.632 96.2973 30.4004C96.4117 30.1543 96.5833 29.9661 96.7978 29.8358C97.0123 29.7055 97.2697 29.6331 97.5557 29.6331C97.8417 29.6331 98.0991 29.7055 98.3136 29.8358C98.5281 29.9661 98.6997 30.1543 98.8141 30.4004C98.9285 30.6465 98.9857 30.9215 98.9857 31.24C98.9857 31.5585 98.9285 31.8335 98.8141 32.0796C98.6997 32.3257 98.5281 32.5139 98.3136 32.6442C98.0991 32.7745 97.8417 32.8468 97.5557 32.8468ZM97.5557 32.3257C97.7416 32.3257 97.8989 32.2823 98.0133 32.1809C98.1277 32.0796 98.2278 31.9493 98.285 31.7901C98.3422 31.6308 98.3708 31.4426 98.3708 31.24C98.3708 31.0373 98.3422 30.8491 98.285 30.6899C98.2278 30.5306 98.1277 30.4004 98.0133 30.299C97.8989 30.1977 97.7416 30.1543 97.5557 30.1543C97.3698 30.1543 97.2125 30.1977 97.0981 30.299C96.9837 30.4004 96.8836 30.5306 96.8264 30.6899C96.7692 30.8491 96.7406 31.0373 96.7406 31.24C96.7406 31.4426 96.7692 31.6164 96.8264 31.7901C96.8836 31.9638 96.9837 32.0796 97.0981 32.1809C97.2125 32.2823 97.3698 32.3257 97.5557 32.3257Z" fill="#001E83"/>
<path d="M18.0754 25.9561C16.7169 25.9561 15.7016 25.7969 14.815 25.5797C14.6434 25.5218 14.4717 25.4205 14.4717 25.2323V23.5241C14.4717 23.278 14.6148 23.1912 14.7864 23.1912H14.8436C15.5443 23.2635 17.4462 23.4083 18.1183 23.4083C19.3052 23.4083 19.6484 23.0174 19.6484 22.1923C19.6484 21.6856 19.4053 21.4106 18.5044 20.8605L16.1306 19.4274C14.5289 18.4719 14.0999 17.3717 14.0999 16.0978C14.0999 14.1725 15.1725 12.6959 18.5187 12.6959C19.7771 12.6959 21.5217 12.9131 22.1795 13.0868C22.3225 13.1157 22.4369 13.2026 22.4369 13.4053V15.1714C22.4369 15.3306 22.3654 15.4754 22.1509 15.4754H22.1223C21.6361 15.4464 19.6341 15.2872 18.4615 15.2872C17.4748 15.2872 17.1173 15.5912 17.1173 16.2136C17.1173 16.7058 17.3461 16.923 18.2756 17.4296L20.4778 18.6312C22.2653 19.6011 22.8087 20.7592 22.8087 22.1778C22.8087 24.0308 21.6075 25.9995 18.104 25.9995L18.0754 25.9561Z" fill="#001E83"/>
<path d="M29.3582 25.9561C26.5125 25.9561 24.2531 24.4072 24.2531 20.3538V18.2837C24.2531 14.2304 26.5125 12.6815 29.3582 12.6815C32.2039 12.6815 34.4634 14.2304 34.4634 18.2837V20.3538C34.4634 24.4072 32.2039 25.9561 29.3582 25.9561ZM31.5032 18.2837C31.5032 16.1847 30.8168 15.3016 29.3582 15.3016C27.8996 15.3016 27.2418 16.1992 27.2418 18.2837V20.3538C27.2418 22.4529 27.9139 23.3359 29.3582 23.3359C30.8025 23.3359 31.5032 22.4384 31.5032 20.3538V18.2837Z" fill="#001E83"/>
<path d="M43.4153 25.7245C42.8433 25.8403 41.5134 25.9561 40.6125 25.9561C38.3959 25.9561 36.4082 25.3771 36.4082 22.2068V13.1881C36.4082 12.9999 36.5655 12.8407 36.7514 12.8407H39.0108C39.1967 12.8407 39.354 12.9999 39.354 13.1881V22.2068C39.354 23.1188 39.6543 23.3938 40.4552 23.3938H43.4153C43.6012 23.3938 43.7585 23.5531 43.7585 23.7413V25.3626C43.7585 25.5942 43.6584 25.6811 43.4153 25.7245Z" fill="#001E83"/>
<path d="M54.4121 25.7969H52.1384C51.9525 25.7969 51.8238 25.6377 51.8238 25.4495V21.208H48.0771V25.4495C48.0771 25.6377 47.9341 25.7969 47.7482 25.7969H45.4745C45.2886 25.7969 45.1313 25.6377 45.1313 25.4495V16.5466C45.1313 13.4053 47.0046 12.7104 49.3212 12.7104H50.5796C52.8963 12.7104 54.7553 13.4053 54.7553 16.5466V25.4495C54.7553 25.6377 54.598 25.7969 54.4121 25.7969ZM51.8238 16.5466C51.8238 15.5912 51.5521 15.2872 50.5796 15.2872H49.3212C48.3774 15.2872 48.0771 15.5912 48.0771 16.5466V18.747H51.8238V16.5466Z" fill="#001E83"/>
<path d="M66.6101 25.7969H63.9789C63.793 25.7969 63.7215 25.6232 63.6357 25.4495L61.3191 21.0342H61.1332C60.7757 21.0487 60.2323 21.0198 59.9033 21.0198V25.4495C59.9033 25.6377 59.746 25.7969 59.5601 25.7969H57.315C57.1291 25.7969 56.9718 25.6377 56.9718 25.4495V13.7382C56.9718 13.1447 57.2149 12.9855 57.744 12.8986C58.5305 12.7828 60.0035 12.667 61.2476 12.667C64.1791 12.667 66.4385 13.6658 66.4385 16.7493V16.9809C66.4385 18.8338 65.4804 19.963 64.2077 20.4697L66.8103 25.3916C66.8103 25.3916 66.8675 25.5363 66.8675 25.5798C66.8675 25.6956 66.796 25.7824 66.6101 25.7824V25.7969ZM63.507 16.7638C63.507 15.6925 62.6919 15.2148 61.2476 15.2148C61.0045 15.2148 60.1179 15.2438 59.9033 15.2727V18.6167C60.0893 18.6312 60.933 18.6457 61.1332 18.6457C62.9493 18.6457 63.507 18.1679 63.507 16.9809V16.7493V16.7638Z" fill="#001E83"/>
<path d="M76.6346 23.6834C76.4916 24.1177 76.2771 24.4796 75.9624 24.7981C75.6335 25.1455 75.2045 25.4206 74.6754 25.5943C74.0891 25.7969 73.3884 25.9127 72.5733 25.9127C72.0299 25.9127 71.5008 25.8838 70.9717 25.8404C70.5999 25.8114 70.1852 25.7535 69.7133 25.6666C69.4988 25.6377 69.3844 25.5219 69.3844 25.3482V24.6533C69.3844 24.4651 69.4845 24.3783 69.6847 24.3783H69.7419C70.1137 24.4072 70.5856 24.4362 71.1719 24.4506C71.6724 24.4796 72.1443 24.4796 72.5876 24.4796C73.56 24.4796 74.2607 24.2914 74.6754 23.9006C75.0329 23.5676 75.2045 23.0754 75.2045 22.4095C75.2045 21.7146 74.5181 20.9329 73.131 20.0644L71.4579 19.0366C69.8706 18.0522 69.0841 16.9665 69.0841 15.7794C69.0841 13.7238 70.4569 12.696 73.2025 12.696C74.3322 12.696 75.3332 12.7684 76.2056 12.8986C76.4058 12.9276 76.5059 13.0289 76.5059 13.2026V13.9554C76.5059 14.1436 76.4058 14.2305 76.2056 14.2305L74.7755 14.1581C74.2035 14.1291 73.6744 14.1291 73.2025 14.1291C71.5151 14.1291 70.6714 14.6792 70.6714 15.7939C70.6714 16.4308 71.3006 17.1402 72.5447 17.9074L74.132 18.8628C75.9338 19.9486 76.8348 21.1356 76.8348 22.424C76.8348 22.8727 76.7776 23.2926 76.6489 23.6834H76.6346Z" fill="#FDB515"/>
<path d="M87.5885 25.16C87.5885 25.4785 87.4312 25.6667 87.1023 25.7246C86.6876 25.7825 86.0727 25.8404 85.2576 25.8838C84.5568 25.9128 83.9419 25.9417 83.4271 25.9417C81.8112 25.9417 80.6386 25.5798 79.9093 24.856C79.1228 24.0743 78.7224 22.757 78.7224 20.8895V13.1737C78.7224 12.9421 78.8225 12.8263 79.037 12.8263H80.0094C80.2096 12.8263 80.3097 12.9421 80.3097 13.1737V20.8895C80.3097 22.3372 80.5671 23.3215 81.0962 23.8572C81.5395 24.3059 82.3403 24.5375 83.47 24.5375C83.7989 24.5375 84.2708 24.5375 84.8714 24.5086C85.3863 24.4796 85.7724 24.4651 86.0298 24.4362V13.1737C86.0298 12.9421 86.1299 12.8263 86.3444 12.8263H87.2882C87.5027 12.8263 87.6028 12.9421 87.6028 13.1737V25.16H87.5885Z" fill="#FDB515"/>
<path d="M98.6711 25.7969H97.4699C97.3126 25.7969 97.1839 25.7246 97.0981 25.5653L94.0092 20.3684L91.664 20.3105V25.435C91.664 25.6666 91.5639 25.7825 91.3494 25.7825H90.4199C90.2197 25.7825 90.1053 25.6666 90.1053 25.435V13.2171C90.1053 13 90.2483 12.8697 90.52 12.8407C91.3065 12.7539 92.3218 12.696 93.5516 12.696C95.0389 12.696 96.1829 12.971 96.9837 13.5211C97.9132 14.1436 98.3851 15.128 98.3851 16.4598V16.5756C98.3851 17.5166 98.1277 18.2983 97.6272 18.9207C97.1553 19.4853 96.5118 19.8907 95.6824 20.1078L98.857 25.464C98.857 25.464 98.9142 25.5653 98.9142 25.6232C98.9142 25.739 98.8427 25.7969 98.6854 25.7969H98.6711ZM96.8264 16.4598C96.8264 14.9108 95.7396 14.1436 93.5516 14.1436H92.5506C92.1359 14.1436 91.8356 14.1726 91.6497 14.2015V18.9786L93.5516 19.0076C94.6671 19.0076 95.4822 18.8339 95.9827 18.5009C96.5404 18.1246 96.8264 17.4876 96.8264 16.5756V16.4598Z" fill="#FDB515"/>
</svg>
