<?xml version="1.0" encoding="UTF-8"?>
<svg id="Capa_2" data-name="Capa 2" xmlns="http://www.w3.org/2000/svg" viewBox="0 0 815.11 309.13">
  <defs>
    <style>
      .cls-1 {
        fill: #fff;
      }

      .cls-2 {
        fill: #fbb315;
      }

      .cls-3 {
        fill: #ef4a23;
      }
    </style>
  </defs>
  <g id="Layer_1" data-name="Layer 1">
    <g>
      <path class="cls-2" d="M80.89,180.22l-72.34,25.03c6.38,18.44,16.06,35.27,28.8,50.06l58-49.93c-6.4-7.43-11.27-15.91-14.46-25.16ZM103.53,213.55l-50.03,57.93c14.73,12.72,31.49,22.45,49.84,28.91l25.41-72.19c-9.27-3.27-17.76-8.2-25.22-14.64ZM166.91,308.45v.16c.63-.03,1.25-.09,1.89-.16h-1.89Z"/>
      <path class="cls-2" d="M166.91,231.58v77.03c-4.16.35-8.32.52-12.47.52-9.72,0-19.47-.93-29-2.75l14.43-75.18c8.85,1.7,18.03,1.84,27.03.38Z"/>
      <rect class="cls-2" x="183.46" y="232.8" width="35.72" height="75.65"/>
      <path class="cls-3" d="M166.57.46c-13.49-1.04-27.15-.31-40.51,2.2l-.12.02,14.12,75.23.12-.02c8.87-1.66,17.95-1.8,26.74-.39l-.35-77.04Z"/>
      <path class="cls-3" d="M103.83,8.56c-18.43,6.39-35.26,16.08-50.05,28.81l49.95,57.99c7.43-6.4,15.9-11.27,25.16-14.48L103.83,8.56Z"/>
      <path class="cls-3" d="M37.6,53.53c-12.71,14.74-22.43,31.51-28.89,49.85l72.2,25.39c3.27-9.27,8.19-17.77,14.63-25.24l-57.95-50.01Z"/>
      <path class="cls-3" d="M77.83,168.56c-.85-4.68-1.29-9.43-1.29-14.13s.47-9.75,1.38-14.53L2.75,125.5c-1.83,9.51-2.75,19.23-2.75,28.93s.9,19.19,2.67,28.64l.18.85,37.27-7.8h.01l.17-.03,37.64-6.97-.11-.57Z"/>
      <g>
        <path class="cls-1" d="M253.88,267.18c-2.5,0-4.66-.54-6.46-1.62-1.8-1.08-3.19-2.6-4.16-4.56-.97-1.95-1.45-4.24-1.45-6.85s.48-4.86,1.44-6.83c.96-1.98,2.32-3.52,4.08-4.64,1.76-1.11,3.8-1.67,6.14-1.67,1.53,0,2.97.25,4.34.76,1.37.5,2.58,1.28,3.64,2.32,1.06,1.05,1.9,2.37,2.51,3.98.61,1.61.92,3.52.92,5.73v1.69h-20.4v-3.75h17.81l-2.29,1.21c0-1.54-.25-2.9-.74-4.09s-1.23-2.1-2.2-2.76c-.97-.66-2.16-.98-3.56-.98s-2.61.34-3.61,1.01c-1,.67-1.77,1.56-2.3,2.68-.53,1.11-.8,2.36-.8,3.73v2.45c0,1.69.29,3.14.88,4.35s1.42,2.13,2.5,2.76,2.33.95,3.77.95c.96,0,1.83-.14,2.61-.42s1.44-.7,1.99-1.25c.55-.55.96-1.22,1.24-2.01l4.72.87c-.38,1.37-1.06,2.58-2.04,3.63-.98,1.05-2.19,1.86-3.65,2.44-1.46.58-3.09.87-4.91.87Z"/>
        <path class="cls-1" d="M274.19,251.77v14.88h-5.01v-25.28h4.81l.02,6.2h-.64c.75-2.26,1.83-3.92,3.25-4.98,1.42-1.06,3.14-1.59,5.15-1.59,1.72,0,3.24.37,4.54,1.1,1.31.73,2.32,1.81,3.06,3.24.73,1.43,1.1,3.19,1.1,5.3v16h-4.99v-15.39c0-1.86-.48-3.31-1.43-4.34-.95-1.03-2.26-1.55-3.93-1.55-1.13,0-2.14.24-3.05.73s-1.61,1.21-2.12,2.15c-.51.95-.77,2.11-.77,3.5Z"/>
        <path class="cls-1" d="M306.95,267.18c-2.5,0-4.66-.54-6.46-1.62-1.8-1.08-3.19-2.6-4.16-4.56-.97-1.95-1.45-4.24-1.45-6.85s.48-4.86,1.44-6.83c.96-1.98,2.32-3.52,4.08-4.64,1.76-1.11,3.8-1.67,6.14-1.67,1.53,0,2.97.25,4.34.76,1.37.5,2.58,1.28,3.64,2.32,1.06,1.05,1.9,2.37,2.51,3.98.61,1.61.92,3.52.92,5.73v1.69h-20.4v-3.75h17.81l-2.29,1.21c0-1.54-.25-2.9-.74-4.09s-1.23-2.1-2.2-2.76c-.97-.66-2.16-.98-3.56-.98s-2.61.34-3.61,1.01c-1,.67-1.77,1.56-2.3,2.68-.53,1.11-.8,2.36-.8,3.73v2.45c0,1.69.29,3.14.88,4.35s1.42,2.13,2.5,2.76,2.33.95,3.77.95c.96,0,1.83-.14,2.61-.42s1.44-.7,1.99-1.25c.55-.55.96-1.22,1.24-2.01l4.72.87c-.38,1.37-1.06,2.58-2.04,3.63-.98,1.05-2.19,1.86-3.65,2.44-1.46.58-3.09.87-4.91.87Z"/>
        <path class="cls-1" d="M322.25,266.65v-25.28h4.83v4.05h.23c.47-1.37,1.27-2.45,2.39-3.23,1.12-.78,2.44-1.17,3.95-1.17.34,0,.7.01,1.09.03.39.02.71.05.97.08v4.74c-.18-.05-.53-.1-1.04-.16-.51-.06-1.04-.09-1.59-.09-1.1,0-2.09.24-2.98.71-.89.47-1.58,1.14-2.08,2-.5.86-.76,1.87-.76,3.03v15.27h-5.01Z"/>
        <path class="cls-1" d="M348.9,276.73c-1.98,0-3.71-.26-5.16-.78s-2.66-1.23-3.59-2.14c-.94-.91-1.61-1.93-2.03-3.08l4.33-1.56c.29.55.69,1.1,1.21,1.64s1.2.99,2.04,1.35c.84.36,1.9.54,3.18.54,1.95,0,3.53-.48,4.72-1.43,1.19-.95,1.79-2.41,1.79-4.36v-4.72h-.34c-.37.64-.84,1.29-1.43,1.93-.59.65-1.36,1.19-2.32,1.64-.96.44-2.17.66-3.62.66-2.01,0-3.83-.49-5.44-1.47-1.61-.98-2.88-2.39-3.8-4.25-.92-1.85-1.39-4.12-1.39-6.79s.46-4.95,1.39-6.88c.92-1.93,2.19-3.42,3.8-4.47,1.61-1.05,3.44-1.57,5.48-1.57,1.47,0,2.68.24,3.65.71.97.47,1.76,1.05,2.37,1.74s1.09,1.34,1.44,1.97h.28v-4.05h4.88v25.5c0,2.27-.5,4.14-1.51,5.59-1.01,1.45-2.37,2.52-4.1,3.22-1.73.69-3.66,1.04-5.82,1.04ZM348.81,262.24c1.42,0,2.63-.34,3.62-1.01s1.75-1.63,2.27-2.88c.52-1.25.78-2.75.78-4.49s-.26-3.2-.78-4.49c-.52-1.28-1.27-2.29-2.27-3.01s-2.2-1.09-3.62-1.09-2.65.37-3.65,1.11-1.76,1.75-2.27,3.05-.77,2.77-.77,4.43.26,3.19.78,4.44c.52,1.25,1.27,2.22,2.27,2.91.99.69,2.21,1.03,3.64,1.03Z"/>
        <path class="cls-1" d="M365.91,266.65v-25.28h5.01v25.28h-5.01ZM366.39,238.13l3.25-6.89h5.17l-4.6,6.89h-3.82Z"/>
        <path class="cls-1" d="M383.7,267.18c-1.62,0-3.08-.29-4.37-.88-1.3-.59-2.32-1.45-3.08-2.6-.76-1.15-1.13-2.55-1.13-4.21,0-1.44.28-2.61.84-3.54.56-.92,1.3-1.65,2.23-2.19s1.98-.94,3.15-1.21c1.17-.28,2.36-.48,3.58-.62,1.51-.18,2.73-.34,3.65-.46.92-.12,1.6-.31,2.04-.57.43-.26.65-.69.65-1.28v-.14c0-.93-.18-1.72-.55-2.37s-.92-1.15-1.65-1.5c-.73-.35-1.63-.53-2.7-.53s-2.02.17-2.82.51-1.44.79-1.93,1.33c-.5.54-.84,1.12-1.04,1.73l-4.74-.94c.47-1.54,1.23-2.8,2.26-3.79,1.03-.98,2.26-1.72,3.67-2.2,1.42-.48,2.94-.72,4.56-.72,1.13,0,2.28.14,3.45.41s2.24.74,3.23,1.4c.98.66,1.77,1.55,2.37,2.68.6,1.13.89,2.55.89,4.26v16.9h-4.85v-3.48h-.21c-.34.66-.82,1.29-1.47,1.9-.64.61-1.46,1.11-2.45,1.51-.99.4-2.18.59-3.57.59ZM384.8,263.17c1.39,0,2.56-.27,3.53-.8s1.69-1.24,2.2-2.11.76-1.8.76-2.79v-3.18c-.17.17-.5.32-.98.46-.49.14-1.05.26-1.67.38-.63.11-1.24.21-1.85.3-.61.08-1.15.16-1.6.22-.92.12-1.77.32-2.55.61-.79.28-1.41.69-1.88,1.21s-.7,1.23-.7,2.1c0,.79.2,1.46.61,1.99s.97.94,1.68,1.21c.72.28,1.54.41,2.47.41Z"/>
        <path class="cls-1" d="M422.29,267.2c-1.86,0-3.52-.27-4.97-.82-1.45-.55-2.63-1.36-3.55-2.44-.92-1.08-1.51-2.39-1.79-3.95l4.76-.78c.31,1.33.93,2.32,1.87,2.96.94.65,2.16.97,3.67.97,1.6,0,2.88-.33,3.82-1,.95-.66,1.42-1.47,1.42-2.42,0-.82-.3-1.5-.9-2.03s-1.49-.92-2.67-1.18l-4.26-.94c-2.35-.53-4.11-1.39-5.27-2.55-1.16-1.17-1.74-2.67-1.74-4.5,0-1.51.42-2.83,1.25-3.96s1.98-2.01,3.45-2.63c1.47-.63,3.15-.94,5.06-.94s3.44.28,4.77.84c1.34.56,2.41,1.34,3.23,2.35.82,1.01,1.37,2.18,1.66,3.53l-4.56.78c-.24-.96-.77-1.79-1.58-2.5s-1.96-1.05-3.46-1.05c-1.39,0-2.54.31-3.44.94-.91.63-1.36,1.43-1.36,2.4,0,.84.31,1.52.94,2.04.63.52,1.6.93,2.93,1.24l4.1.92c2.38.54,4.14,1.37,5.28,2.5,1.14,1.13,1.71,2.59,1.71,4.37,0,1.54-.44,2.9-1.33,4.09-.89,1.18-2.11,2.11-3.66,2.77-1.56.66-3.35,1-5.38,1Z"/>
        <path class="cls-1" d="M447.68,267.18c-2.38,0-4.46-.55-6.24-1.64-1.78-1.09-3.16-2.62-4.14-4.58-.98-1.96-1.48-4.24-1.48-6.83s.49-4.92,1.48-6.89c.98-1.97,2.37-3.5,4.14-4.59,1.78-1.09,3.86-1.64,6.24-1.64s4.48.55,6.26,1.64c1.78,1.09,3.16,2.62,4.14,4.59.98,1.97,1.48,4.27,1.48,6.89s-.49,4.87-1.48,6.83c-.98,1.96-2.37,3.49-4.14,4.58-1.78,1.09-3.87,1.64-6.26,1.64ZM447.68,262.95c1.51,0,2.77-.39,3.79-1.18,1.02-.79,1.77-1.85,2.28-3.18s.76-2.82.76-4.45-.25-3.16-.76-4.5-1.26-2.4-2.28-3.19c-1.02-.79-2.28-1.19-3.79-1.19s-2.77.4-3.77,1.19c-1,.79-1.75,1.86-2.25,3.19s-.76,2.83-.76,4.5.25,3.12.76,4.45,1.25,2.4,2.25,3.18c1,.79,2.26,1.18,3.77,1.18Z"/>
        <path class="cls-1" d="M468.97,232.54v34.11h-5.01v-34.11h5.01Z"/>
        <path class="cls-1" d="M481.75,267.18c-1.62,0-3.08-.29-4.37-.88-1.3-.59-2.32-1.45-3.08-2.6-.76-1.15-1.13-2.55-1.13-4.21,0-1.44.28-2.61.84-3.54.56-.92,1.3-1.65,2.23-2.19.93-.53,1.98-.94,3.15-1.21,1.17-.28,2.36-.48,3.58-.62,1.51-.18,2.73-.34,3.65-.46.92-.12,1.6-.31,2.04-.57.43-.26.65-.69.65-1.28v-.14c0-.93-.18-1.72-.55-2.37s-.92-1.15-1.65-1.5c-.73-.35-1.63-.53-2.7-.53s-2.02.17-2.82.51c-.79.34-1.44.79-1.93,1.33-.5.54-.84,1.12-1.04,1.73l-4.74-.94c.47-1.54,1.23-2.8,2.26-3.79,1.03-.98,2.26-1.72,3.67-2.2,1.42-.48,2.94-.72,4.56-.72,1.13,0,2.28.14,3.45.41s2.24.74,3.23,1.4c.98.66,1.77,1.55,2.37,2.68.6,1.13.89,2.55.89,4.26v16.9h-4.85v-3.48h-.21c-.34.66-.82,1.29-1.47,1.9-.64.61-1.46,1.11-2.45,1.51-.99.4-2.18.59-3.57.59ZM482.85,263.17c1.39,0,2.56-.27,3.53-.8s1.69-1.24,2.2-2.11.76-1.8.76-2.79v-3.18c-.17.17-.5.32-.98.46-.49.14-1.05.26-1.67.38-.63.11-1.24.21-1.85.3-.61.08-1.15.16-1.6.22-.92.12-1.77.32-2.55.61-.79.28-1.41.69-1.88,1.21-.47.53-.7,1.23-.7,2.1,0,.79.2,1.46.61,1.99s.97.94,1.68,1.21c.72.28,1.54.41,2.47.41Z"/>
        <path class="cls-1" d="M499.86,266.65v-25.28h4.83v4.05h.23c.47-1.37,1.27-2.45,2.39-3.23,1.12-.78,2.44-1.17,3.95-1.17.34,0,.7.01,1.09.03.39.02.71.05.97.08v4.74c-.18-.05-.53-.1-1.04-.16-.51-.06-1.04-.09-1.59-.09-1.1,0-2.09.24-2.98.71-.89.47-1.58,1.14-2.08,2-.5.86-.76,1.87-.76,3.03v15.27h-5.01Z"/>
        <path class="cls-1" d="M527.91,276.23v-34.85h4.88v4.01h.34c.35-.61.82-1.25,1.41-1.92.59-.67,1.37-1.25,2.33-1.73.97-.48,2.19-.72,3.65-.72,2.08,0,3.91.52,5.51,1.57,1.59,1.05,2.85,2.54,3.77,4.49.92,1.95,1.37,4.28,1.37,6.99s-.45,5.03-1.36,6.98c-.91,1.95-2.16,3.46-3.75,4.52-1.6,1.06-3.44,1.59-5.53,1.59-1.44,0-2.63-.24-3.6-.72-.96-.48-1.74-1.06-2.35-1.74-.6-.68-1.08-1.33-1.43-1.96h-.23v13.49h-5.01ZM539.45,262.9c1.42,0,2.62-.38,3.62-1.15.99-.76,1.74-1.81,2.25-3.15s.77-2.86.77-4.57-.26-3.24-.77-4.56-1.26-2.34-2.24-3.09c-.98-.75-2.19-1.12-3.63-1.12s-2.65.37-3.64,1.1c-.99.73-1.74,1.75-2.26,3.06-.51,1.3-.77,2.84-.77,4.61s.26,3.3.78,4.62,1.28,2.37,2.28,3.11c1,.75,2.2,1.12,3.61,1.12Z"/>
        <path class="cls-1" d="M563.2,267.18c-1.62,0-3.08-.29-4.37-.88-1.3-.59-2.32-1.45-3.08-2.6-.76-1.15-1.13-2.55-1.13-4.21,0-1.44.28-2.61.84-3.54.56-.92,1.3-1.65,2.23-2.19.93-.53,1.98-.94,3.15-1.21,1.17-.28,2.36-.48,3.58-.62,1.51-.18,2.73-.34,3.65-.46.92-.12,1.6-.31,2.04-.57.43-.26.65-.69.65-1.28v-.14c0-.93-.18-1.72-.55-2.37s-.92-1.15-1.65-1.5c-.73-.35-1.63-.53-2.7-.53s-2.02.17-2.82.51c-.79.34-1.44.79-1.93,1.33-.5.54-.84,1.12-1.04,1.73l-4.74-.94c.47-1.54,1.23-2.8,2.26-3.79,1.03-.98,2.26-1.72,3.67-2.2,1.42-.48,2.94-.72,4.56-.72,1.13,0,2.28.14,3.45.41s2.24.74,3.23,1.4c.98.66,1.77,1.55,2.37,2.68.6,1.13.89,2.55.89,4.26v16.9h-4.85v-3.48h-.21c-.34.66-.82,1.29-1.47,1.9-.64.61-1.46,1.11-2.45,1.51-.99.4-2.18.59-3.57.59ZM564.3,263.17c1.39,0,2.56-.27,3.53-.8s1.69-1.24,2.2-2.11.76-1.8.76-2.79v-3.18c-.17.17-.5.32-.98.46-.49.14-1.05.26-1.67.38-.63.11-1.24.21-1.85.3-.61.08-1.15.16-1.6.22-.92.12-1.77.32-2.55.61-.79.28-1.41.69-1.88,1.21-.47.53-.7,1.23-.7,2.1,0,.79.2,1.46.61,1.99s.97.94,1.68,1.21c.72.28,1.54.41,2.47.41Z"/>
        <path class="cls-1" d="M581.31,266.65v-25.28h4.83v4.05h.23c.47-1.37,1.27-2.45,2.39-3.23,1.12-.78,2.44-1.17,3.95-1.17.34,0,.7.01,1.09.03.39.02.71.05.97.08v4.74c-.18-.05-.53-.1-1.04-.16-.51-.06-1.04-.09-1.59-.09-1.1,0-2.09.24-2.98.71-.89.47-1.58,1.14-2.08,2-.5.86-.76,1.87-.76,3.03v15.27h-5.01Z"/>
        <path class="cls-1" d="M604.96,267.18c-1.62,0-3.08-.29-4.37-.88-1.3-.59-2.32-1.45-3.08-2.6-.76-1.15-1.13-2.55-1.13-4.21,0-1.44.28-2.61.84-3.54.56-.92,1.3-1.65,2.23-2.19.93-.53,1.98-.94,3.15-1.21,1.17-.28,2.36-.48,3.58-.62,1.51-.18,2.73-.34,3.65-.46.92-.12,1.6-.31,2.04-.57.43-.26.65-.69.65-1.28v-.14c0-.93-.18-1.72-.55-2.37s-.92-1.15-1.65-1.5c-.73-.35-1.63-.53-2.7-.53s-2.02.17-2.82.51c-.79.34-1.44.79-1.93,1.33-.5.54-.84,1.12-1.04,1.73l-4.74-.94c.47-1.54,1.23-2.8,2.26-3.79,1.03-.98,2.26-1.72,3.67-2.2,1.42-.48,2.94-.72,4.56-.72,1.13,0,2.28.14,3.45.41s2.24.74,3.23,1.4c.98.66,1.77,1.55,2.37,2.68.6,1.13.89,2.55.89,4.26v16.9h-4.85v-3.48h-.21c-.34.66-.82,1.29-1.47,1.9-.64.61-1.46,1.11-2.45,1.51-.99.4-2.18.59-3.57.59ZM606.06,263.17c1.39,0,2.56-.27,3.53-.8s1.69-1.24,2.2-2.11.76-1.8.76-2.79v-3.18c-.17.17-.5.32-.98.46-.49.14-1.05.26-1.67.38-.63.11-1.24.21-1.85.3-.61.08-1.15.16-1.6.22-.92.12-1.77.32-2.55.61-.79.28-1.41.69-1.88,1.21-.47.53-.7,1.23-.7,2.1,0,.79.2,1.46.61,1.99s.97.94,1.68,1.21c.72.28,1.54.41,2.47.41Z"/>
        <path class="cls-1" d="M645.51,241.38v4.08h-13.92v-4.08h13.92ZM635.44,235.17h5.01v24.68c0,.99.21,1.72.62,2.18.41.46,1.11.69,2.11.69.29,0,.65-.03,1.08-.08.43-.05.79-.1,1.1-.15l.71,4.03c-.52.14-1.08.24-1.67.3-.59.06-1.18.09-1.76.09-2.31,0-4.08-.57-5.32-1.71-1.24-1.14-1.87-2.77-1.87-4.89v-25.14Z"/>
        <path class="cls-1" d="M659.57,267.18c-2.38,0-4.46-.55-6.24-1.64-1.78-1.09-3.16-2.62-4.14-4.58-.98-1.96-1.48-4.24-1.48-6.83s.49-4.92,1.48-6.89c.98-1.97,2.37-3.5,4.14-4.59,1.78-1.09,3.86-1.64,6.24-1.64s4.48.55,6.26,1.64c1.78,1.09,3.16,2.62,4.14,4.59.98,1.97,1.48,4.27,1.48,6.89s-.49,4.87-1.48,6.83c-.98,1.96-2.37,3.49-4.14,4.58-1.78,1.09-3.87,1.64-6.26,1.64ZM659.57,262.95c1.51,0,2.77-.39,3.79-1.18,1.02-.79,1.77-1.85,2.28-3.18s.76-2.82.76-4.45-.25-3.16-.76-4.5-1.26-2.4-2.28-3.19c-1.02-.79-2.28-1.19-3.79-1.19s-2.77.4-3.77,1.19c-1,.79-1.75,1.86-2.25,3.19s-.76,2.83-.76,4.5.25,3.12.76,4.45,1.25,2.4,2.25,3.18c1,.79,2.26,1.18,3.77,1.18Z"/>
        <path class="cls-1" d="M685.33,267.16c-2.08,0-3.91-.53-5.52-1.59-1.6-1.06-2.86-2.57-3.77-4.52-.91-1.95-1.36-4.28-1.36-6.98s.46-5.05,1.37-6.99c.92-1.95,2.18-3.44,3.79-4.49,1.61-1.05,3.44-1.57,5.48-1.57,1.47,0,2.68.24,3.65.72.97.48,1.75,1.06,2.34,1.73.59.67,1.05,1.31,1.39,1.92h.25v-12.84h4.99v34.11h-4.88v-3.94h-.34c-.34.64-.81,1.3-1.42,1.98-.61.68-1.4,1.26-2.36,1.74-.96.48-2.17.72-3.62.72ZM686.41,262.9c1.42,0,2.63-.37,3.62-1.12.99-.75,1.75-1.79,2.27-3.11s.78-2.87.78-4.62-.26-3.31-.77-4.61c-.51-1.31-1.26-2.32-2.26-3.06-.99-.73-2.21-1.1-3.64-1.1s-2.64.37-3.63,1.12c-.98.75-1.73,1.78-2.24,3.09s-.77,2.83-.77,4.56.26,3.23.77,4.57,1.27,2.39,2.27,3.15c1,.76,2.2,1.15,3.61,1.15Z"/>
        <path class="cls-1" d="M714.21,267.18c-2.38,0-4.46-.55-6.24-1.64-1.78-1.09-3.16-2.62-4.14-4.58-.98-1.96-1.48-4.24-1.48-6.83s.49-4.92,1.48-6.89c.98-1.97,2.37-3.5,4.14-4.59,1.78-1.09,3.86-1.64,6.24-1.64s4.48.55,6.26,1.64c1.78,1.09,3.16,2.62,4.14,4.59.98,1.97,1.48,4.27,1.48,6.89s-.49,4.87-1.48,6.83c-.98,1.96-2.37,3.49-4.14,4.58-1.78,1.09-3.87,1.64-6.26,1.64ZM714.21,262.95c1.51,0,2.77-.39,3.79-1.18,1.02-.79,1.77-1.85,2.28-3.18s.76-2.82.76-4.45-.25-3.16-.76-4.5-1.26-2.4-2.28-3.19c-1.02-.79-2.28-1.19-3.79-1.19s-2.77.4-3.77,1.19c-1,.79-1.75,1.86-2.25,3.19s-.76,2.83-.76,4.5.25,3.12.76,4.45,1.25,2.4,2.25,3.18c1,.79,2.26,1.18,3.77,1.18Z"/>
        <path class="cls-1" d="M750.54,267c-1.73,0-3.24-.36-4.56-1.09-1.31-.72-2.34-1.8-3.08-3.24-.74-1.43-1.11-3.2-1.11-5.31v-15.98h5.01v15.36c0,1.86.48,3.31,1.43,4.35.95,1.04,2.27,1.56,3.95,1.56,1.13,0,2.14-.24,3.02-.73s1.59-1.21,2.11-2.16c.52-.95.78-2.12.78-3.49v-14.88h5.01v25.28h-4.81l-.02-6.2h.64c-.76,2.27-1.86,3.93-3.29,4.98-1.43,1.05-3.13,1.57-5.09,1.57Z"/>
        <path class="cls-1" d="M777.84,267.2c-1.86,0-3.52-.27-4.97-.82-1.45-.55-2.63-1.36-3.55-2.44-.92-1.08-1.51-2.39-1.79-3.95l4.76-.78c.31,1.33.93,2.32,1.87,2.96.94.65,2.16.97,3.67.97,1.6,0,2.88-.33,3.82-1,.95-.66,1.42-1.47,1.42-2.42,0-.82-.3-1.5-.9-2.03s-1.49-.92-2.67-1.18l-4.26-.94c-2.35-.53-4.11-1.39-5.27-2.55-1.16-1.17-1.74-2.67-1.74-4.5,0-1.51.42-2.83,1.25-3.96s1.98-2.01,3.45-2.63c1.47-.63,3.15-.94,5.06-.94s3.44.28,4.77.84c1.34.56,2.41,1.34,3.23,2.35.82,1.01,1.37,2.18,1.66,3.53l-4.56.78c-.24-.96-.77-1.79-1.58-2.5s-1.96-1.05-3.46-1.05c-1.39,0-2.54.31-3.44.94-.91.63-1.36,1.43-1.36,2.4,0,.84.31,1.52.94,2.04.63.52,1.6.93,2.93,1.24l4.1.92c2.38.54,4.14,1.37,5.28,2.5,1.14,1.13,1.71,2.59,1.71,4.37,0,1.54-.44,2.9-1.33,4.09-.89,1.18-2.11,2.11-3.66,2.77-1.56.66-3.35,1-5.38,1Z"/>
        <path class="cls-1" d="M803.23,267.18c-2.38,0-4.46-.55-6.24-1.64-1.78-1.09-3.16-2.62-4.14-4.58-.98-1.96-1.48-4.24-1.48-6.83s.49-4.92,1.48-6.89c.98-1.97,2.37-3.5,4.14-4.59,1.78-1.09,3.86-1.64,6.24-1.64s4.48.55,6.26,1.64c1.78,1.09,3.16,2.62,4.14,4.59.98,1.97,1.48,4.27,1.48,6.89s-.49,4.87-1.48,6.83c-.98,1.96-2.37,3.49-4.14,4.58-1.78,1.09-3.87,1.64-6.26,1.64ZM803.23,262.95c1.51,0,2.77-.39,3.79-1.18,1.02-.79,1.77-1.85,2.28-3.18s.76-2.82.76-4.45-.25-3.16-.76-4.5-1.26-2.4-2.28-3.19c-1.02-.79-2.28-1.19-3.79-1.19s-2.77.4-3.77,1.19c-1,.79-1.75,1.86-2.25,3.19s-.76,2.83-.76,4.5.25,3.12.76,4.45,1.25,2.4,2.25,3.18c1,.79,2.26,1.18,3.77,1.18Z"/>
      </g>
      <g>
        <path class="cls-1" d="M148.85,211.07c-11.21,0-19.59-1.28-26.83-3.12-1.42-.43-2.84-1.28-2.84-2.84v-13.91c0-1.99,1.14-2.7,2.55-2.7h.43c5.82.57,21.43,1.7,26.97,1.7,9.79,0,12.63-3.12,12.63-9.94,0-4.12-1.99-6.39-9.37-10.79l-19.59-11.64c-13.2-7.81-16.75-16.75-16.75-27.11,0-15.61,8.8-27.68,36.34-27.68,10.36,0,24.7,1.7,30.09,3.12,1.14.28,2.13.99,2.13,2.56v14.34c0,1.28-.57,2.41-2.41,2.41h-.28c-3.97-.28-20.44-1.56-30.09-1.56-8.09,0-11.07,2.41-11.07,7.52,0,3.97,1.84,5.82,9.51,9.94l18.17,9.79c14.76,7.95,19.16,17.32,19.16,28.81,0,15.05-9.94,31.09-38.75,31.09Z"/>
        <path class="cls-1" d="M241.69,211.07c-23.42,0-42.02-12.63-42.02-45.56v-16.89c0-32.93,18.59-45.56,42.02-45.56s42.01,12.63,42.01,45.56v16.89c0,32.93-18.59,45.56-42.01,45.56ZM259.29,148.61c0-17.03-5.68-24.27-17.6-24.27s-17.46,7.24-17.46,24.27v16.89c0,17.03,5.54,24.27,17.46,24.27s17.6-7.24,17.6-24.27v-16.89Z"/>
        <path class="cls-1" d="M357.52,209.22c-4.68.99-15.61,1.84-23.14,1.84-18.31,0-34.63-4.68-34.63-30.52v-73.39c0-1.56,1.28-2.84,2.84-2.84h18.59c1.56,0,2.84,1.28,2.84,2.84v73.39c0,7.38,2.41,9.65,9.08,9.65h24.41c1.56,0,2.84,1.28,2.84,2.84v13.2c0,1.85-.85,2.56-2.84,2.98Z"/>
        <path class="cls-1" d="M448.08,209.79h-18.74c-1.56,0-2.56-1.28-2.56-2.84v-34.49h-30.8v34.49c0,1.56-1.14,2.84-2.7,2.84h-18.74c-1.56,0-2.84-1.28-2.84-2.84v-72.39c0-25.55,15.47-31.23,34.49-31.23h10.36c19.02,0,34.35,5.68,34.35,31.23v72.39c0,1.56-1.28,2.84-2.84,2.84ZM426.79,134.56c0-7.81-2.27-10.22-10.22-10.22h-10.36c-7.81,0-10.22,2.41-10.22,10.22v17.88h30.8v-17.88Z"/>
        <path class="cls-1" d="M548.44,209.79h-21.72c-1.56,0-2.13-1.42-2.84-2.84l-19.02-35.91-1.56.14c-2.98,0-7.38-.28-10.08-.28v36.05c0,1.56-1.28,2.84-2.84,2.84h-18.45c-1.56,0-2.84-1.28-2.84-2.84v-95.24c0-4.83,1.99-6.1,6.39-6.81,6.53-.99,18.59-1.85,28.81-1.85,24.13,0,42.72,8.09,42.72,33.22v1.84c0,15.05-7.95,24.27-18.31,28.39l21.43,40.03c.28.57.43,1.14.43,1.56,0,.99-.57,1.7-2.13,1.7ZM522.89,136.26c0-8.66-6.67-12.63-18.59-12.63-1.99,0-9.37.28-11.07.43v27.25c1.56.14,8.52.28,10.08.28,14.9,0,19.59-3.83,19.59-13.48v-1.84Z"/>
      </g>
      <g>
        <path class="cls-2" d="M631.04,192.61c-1.14,3.5-2.98,6.53-5.54,9.09-2.75,2.84-6.29,5.02-10.65,6.53-4.83,1.7-10.6,2.55-17.32,2.55-4.45,0-8.85-.19-13.2-.57-3.03-.28-6.48-.76-10.36-1.42-1.8-.28-2.7-1.14-2.7-2.56v-5.68c0-1.51.8-2.27,2.41-2.27h.43c3.03.28,6.96.47,11.78.57,4.16.19,8.04.28,11.64.28,8.04,0,13.77-1.56,17.18-4.68,2.93-2.65,4.4-6.67,4.4-12.07,0-5.68-5.68-12.02-17.03-19.02l-13.77-8.37c-13.06-7.95-19.59-16.8-19.59-26.54,0-16.75,11.31-25.13,33.93-25.13,9.27,0,17.51.57,24.7,1.7,1.61.28,2.41,1.09,2.41,2.41v6.1c0,1.52-.8,2.27-2.41,2.27l-11.78-.57c-4.73-.19-9.04-.28-12.92-.28-13.91,0-20.87,4.5-20.87,13.49,0,5.21,5.16,10.93,15.47,17.18l13.06,7.81c14.86,8.8,22.29,18.45,22.29,28.96,0,3.69-.52,7.1-1.56,10.22Z"/>
        <path class="cls-2" d="M721.18,204.68c0,2.65-1.33,4.17-3.97,4.54-3.41.47-8.47.9-15.19,1.28-5.77.28-10.79.43-15.05.43-13.34,0-23-2.93-28.96-8.8-6.53-6.34-9.79-17.08-9.79-32.22v-62.74c0-1.89.85-2.84,2.56-2.84h7.95c1.61,0,2.41.95,2.41,2.84v62.74c0,11.74,2.18,19.78,6.53,24.13,3.69,3.69,10.22,5.54,19.59,5.54,2.74,0,6.58-.09,11.5-.28,4.26-.19,7.43-.38,9.51-.57v-91.56c0-1.89.85-2.84,2.56-2.84h7.81c1.7,0,2.56.95,2.56,2.84v97.52Z"/>
        <path class="cls-2" d="M812.45,209.79h-9.94c-1.33,0-2.37-.61-3.12-1.85l-25.41-42.3-19.31-.43v41.73c0,1.89-.85,2.84-2.55,2.84h-7.67c-1.7,0-2.55-.94-2.55-2.84v-99.37c0-1.8,1.14-2.84,3.41-3.12,6.53-.76,14.86-1.14,24.98-1.14,12.21,0,21.62,2.22,28.25,6.67,7.67,5.11,11.5,13.06,11.5,23.85v.99c0,7.67-2.08,14.01-6.25,19.02-3.88,4.64-9.23,7.86-16.04,9.65l26.12,43.58c.28.38.43.8.43,1.28,0,.95-.62,1.42-1.85,1.42ZM797.26,133.85c0-12.58-8.99-18.88-26.97-18.88h-8.23c-3.41.1-5.87.24-7.38.43v38.89l15.62.28c9.18,0,15.85-1.37,20.01-4.12,4.64-3.03,6.96-8.23,6.96-15.62v-.99Z"/>
      </g>
    </g>
  </g>
</svg>