<?xml version="1.0" encoding="UTF-8"?>
<svg id="Layer_2" data-name="Layer 2" xmlns="http://www.w3.org/2000/svg" viewBox="0 0 272.6 272.6">
  <defs>
    <style>
      .cls-1 {
        fill: #ee472b;
      }

      .cls-2 {
        fill: #f3af1b;
      }
    </style>
  </defs>
  <g id="Layer_1-2" data-name="Layer 1">
    <g>
      <path class="cls-2" d="m148.27,205.33c-4.05.74-8.15,1.11-12.21,1.11s-8.43-.4-12.56-1.19l-12.44,64.96c8.22,1.58,16.62,2.38,25,2.38s16.59-.78,24.75-2.31l.74-.15-6.74-32.21h0s-.03-.15-.03-.15l-6.02-32.53-.49.1Z"/>
      <path class="cls-2" d="m112.15,202.07c-3.87-1.38-7.61-3.11-11.13-5.14s-7.1-4.56-10.28-7.31l-43.26,50.04c6.32,5.48,13.21,10.37,20.46,14.56,7.15,4.13,14.75,7.62,22.59,10.38l.72.24,10.27-31.27h0s.05-.15.05-.15l11.05-31.18-.47-.16Z"/>
      <path class="cls-2" d="m82.5,181.18c-2.66-3.13-5.04-6.5-7.07-10.02s-3.86-7.5-5.25-11.47l-62.48,21.7c2.74,7.91,6.25,15.59,10.44,22.84,4.13,7.15,8.97,13.98,14.38,20.28l.5.56,24.53-21.94h0s.11-.1.11-.1l25.16-21.48-.33-.38Z"/>
      <path class="cls-1" d="m67.26,148.27c-.74-4.05-1.11-8.15-1.11-12.21s.4-8.43,1.19-12.56L2.38,111.05C.8,119.27,0,127.67,0,136.05c0,8.25.78,16.59,2.31,24.75l.15.74,32.21-6.74h0s.14-.03.14-.03l32.53-6.02-.1-.49Z"/>
      <path class="cls-1" d="m70.53,112.15c1.38-3.87,3.11-7.61,5.14-11.13,2.1-3.64,4.56-7.1,7.31-10.28l-50.04-43.26c-5.48,6.32-10.37,13.21-14.56,20.46-4.13,7.15-7.62,14.75-10.38,22.59l-.24.72,31.27,10.27h0s.14.05.14.05l31.18,11.05.16-.47Z"/>
      <path class="cls-1" d="m91.41,82.5c3.13-2.66,6.5-5.04,10.02-7.07,3.64-2.1,7.5-3.86,11.47-5.25L91.2,7.7c-7.91,2.74-15.59,6.25-22.84,10.44s-13.98,8.97-20.28,14.38l-.56.5,21.94,24.53h0s.1.12.1.12l21.48,25.16.38-.33Z"/>
      <path class="cls-1" d="m124.33,67.26c4.05-.74,8.15-1.11,12.21-1.11,4.21,0,8.43.4,12.56,1.19L161.55,2.38C153.33.8,144.92,0,136.54,0c-8.25,0-16.59.78-24.75,2.31l-.74.15,6.74,32.21h0s.03.15.03.15l6.02,32.53.49-.1Z"/>
      <path class="cls-1" d="m160.45,70.53c3.87,1.38,7.61,3.11,11.13,5.14s7.1,4.56,10.28,7.31l43.26-50.04c-6.32-5.48-13.21-10.37-20.46-14.56-7.15-4.13-14.75-7.62-22.59-10.38l-.72-.24-10.27,31.27h0s-.05.15-.05.15l-11.05,31.18.47.16Z"/>
      <path class="cls-1" d="m190.1,91.41c2.66,3.13,5.04,6.5,7.07,10.02,2.1,3.64,3.86,7.5,5.25,11.47l62.48-21.7c-2.74-7.91-6.25-15.59-10.44-22.84-4.13-7.15-8.97-13.98-14.38-20.28l-.5-.56-24.53,21.94h0s-.11.1-.11.1l-25.16,21.48.33.38Z"/>
      <path class="cls-2" d="m205.33,124.33c.74,4.05,1.11,8.15,1.11,12.21s-.4,8.43-1.19,12.56l64.96,12.44c1.58-8.22,2.38-16.62,2.38-25,0-8.25-.78-16.59-2.31-24.75l-.15-.74-32.21,6.74h0s-.14.03-.14.03l-32.53,6.02.1.49Z"/>
      <path class="cls-2" d="m202.07,160.45c-1.38,3.87-3.11,7.61-5.14,11.13-2.1,3.64-4.56,7.1-7.31,10.28l50.04,43.26c5.48-6.32,10.37-13.21,14.56-20.46,4.13-7.15,7.62-14.75,10.38-22.59l.24-.72-31.27-10.27h0s-.14-.05-.14-.05l-31.18-11.05-.16.47Z"/>
      <path class="cls-2" d="m181.18,190.1c-3.13,2.66-6.5,5.04-10.02,7.07s-7.5,3.86-11.47,5.25l21.7,62.48c7.91-2.74,15.59-6.25,22.84-10.44,7.15-4.13,13.98-8.97,20.28-14.38l.56-.5-21.94-24.53h0s-.1-.12-.1-.12l-21.48-25.16-.38.33Z"/>
    </g>
  </g>
</svg>