<svg width="20" height="22" viewBox="0 0 20 22" fill="none" xmlns="http://www.w3.org/2000/svg">
<path d="M16.1755 5.27729C16.0406 5.20752 15.9092 5.13104 15.7818 5.04813C15.4115 4.80333 15.072 4.51489 14.7706 4.18901C14.0165 3.32613 13.7348 2.45076 13.6311 1.83787H13.6353C13.5486 1.32915 13.5844 1 13.5898 1H10.155V14.2818C10.155 14.4602 10.155 14.6364 10.1475 14.8106C10.1475 14.8322 10.1454 14.8522 10.1442 14.8756C10.1442 14.8851 10.1442 14.8951 10.1421 14.9051V14.9126C10.1059 15.3892 9.95309 15.8495 9.69729 16.2532C9.44139 16.6568 9.09019 16.9914 8.67469 17.2275C8.24159 17.4739 7.75179 17.6032 7.25348 17.6025C5.65315 17.6025 4.35613 16.2976 4.35613 14.686C4.35613 13.0744 5.65315 11.7695 7.25348 11.7695C7.55642 11.7692 7.85749 11.8169 8.14549 11.9107L8.14969 8.41338C7.2753 8.30043 6.38699 8.36992 5.54081 8.61747C4.69462 8.86502 3.90892 9.2852 3.23327 9.8516C2.64124 10.366 2.14352 10.9798 1.76251 11.6653C1.61751 11.9153 1.07046 12.9198 1.00421 14.5502C0.962552 15.4755 1.24045 16.4342 1.37294 16.8305V16.8388C1.45627 17.0721 1.77917 17.8683 2.3054 18.5395C2.72972 19.078 3.23105 19.5509 3.79324 19.9432V19.9349L3.80157 19.9432C5.46441 21.0732 7.30806 20.999 7.30806 20.999C7.62722 20.9861 8.69629 20.999 9.91039 20.4236C11.257 19.7857 12.0237 18.8354 12.0237 18.8354C12.5134 18.2675 12.9029 17.6204 13.1753 16.9217C13.4861 16.1047 13.5898 15.1247 13.5898 14.7331V7.68675C13.6315 7.71175 14.1865 8.07881 14.1865 8.07881C14.1865 8.07881 14.986 8.59129 16.2335 8.92502C17.1284 9.1625 18.3342 9.2125 18.3342 9.2125V5.80268C17.9117 5.84851 17.0538 5.71518 16.1755 5.27729Z" stroke="white" stroke-width="1.5" stroke-linejoin="round"/>
</svg>
