<svg width="20" height="24" viewBox="0 0 20 24" fill="none" xmlns="http://www.w3.org/2000/svg">
<path d="M17.3214 5.56219C17.1695 5.4837 17.0217 5.39765 16.8784 5.30438C16.4618 5.02896 16.0799 4.70445 15.7408 4.33781C14.8923 3.36703 14.5755 2.38219 14.4588 1.69266H14.4634C14.3659 1.12031 14.4063 0.75 14.4123 0.75H10.548V15.6928C10.548 15.8934 10.548 16.0917 10.5395 16.2877C10.5395 16.312 10.5372 16.3345 10.5358 16.3608C10.5358 16.3716 10.5358 16.3828 10.5334 16.3941V16.4025C10.4927 16.9386 10.3208 17.4566 10.033 17.9107C9.74508 18.3648 9.35001 18.7413 8.88251 19.0069C8.39526 19.2841 7.84418 19.4295 7.2836 19.4288C5.48313 19.4288 4.02391 17.9606 4.02391 16.1475C4.02391 14.3344 5.48313 12.8663 7.2836 12.8663C7.62442 12.8659 7.96314 12.9196 8.28719 13.0252L8.29188 9.09047C7.30814 8.9634 6.30875 9.04158 5.35674 9.32008C4.40473 9.59858 3.52077 10.0714 2.76063 10.7086C2.09457 11.2873 1.5346 11.9778 1.10594 12.7491C0.942817 13.0303 0.327349 14.1605 0.252817 15.9947C0.205942 17.0358 0.518599 18.1144 0.667661 18.5602V18.5695C0.761411 18.832 1.12469 19.7278 1.71672 20.483C2.19412 21.0887 2.75814 21.6208 3.39063 22.0622V22.0528L3.4 22.0622C5.27079 23.3334 7.34501 23.25 7.34501 23.25C7.70407 23.2355 8.90688 23.25 10.2728 22.6027C11.7878 21.885 12.6503 20.8158 12.6503 20.8158C13.2013 20.1769 13.6395 19.4488 13.9459 18.6628C14.2956 17.7436 14.4123 16.6411 14.4123 16.2005V8.27297C14.4592 8.30109 15.0836 8.71406 15.0836 8.71406C15.0836 8.71406 15.9831 9.29063 17.3866 9.66609C18.3934 9.93328 19.75 9.98953 19.75 9.98953V6.15328C19.2747 6.20484 18.3095 6.05484 17.3214 5.56219Z" fill="white"/>
</svg>
