<svg width="19" height="20" viewBox="0 0 19 20" fill="none" xmlns="http://www.w3.org/2000/svg">
<path d="M9.5 1.51123C6.22213 1.51123 3.5625 3.90516 3.5625 6.85498C3.5625 11.605 9.5 18.1362 9.5 18.1362C9.5 18.1362 15.4375 11.605 15.4375 6.85498C15.4375 3.90516 12.7779 1.51123 9.5 1.51123ZM9.5 9.82373C9.03027 9.82373 8.57109 9.68444 8.18052 9.42347C7.78995 9.1625 7.48554 8.79158 7.30579 8.3576C7.12603 7.92363 7.07899 7.4461 7.17063 6.98539C7.26227 6.52469 7.48847 6.1015 7.82062 5.76935C8.15277 5.4372 8.57596 5.21101 9.03666 5.11937C9.49737 5.02773 9.9749 5.07476 10.4089 5.25452C10.8428 5.43427 11.2138 5.73868 11.4747 6.12925C11.7357 6.51982 11.875 6.979 11.875 7.44873C11.8743 8.07841 11.6239 8.6821 11.1786 9.12735C10.7334 9.5726 10.1297 9.82304 9.5 9.82373Z" fill="white"/>
</svg>
